  0
SECTION
  2
HEADER
  9
$ACADVER
  1
AC1032
  9
$ACADMAINTVER
 90
      228
  9
$DWGCODEPAGE
  3
ANSI_1252
  9
$REQUIREDVERSIONS
160
                 0
  9
$INSBASE
 10
0.0
 20
0.0
 30
0.0
  9
$EXTMIN
 10
1.000000000000000E+20
 20
1.000000000000000E+20
 30
1.000000000000000E+20
  9
$EXTMAX
 10
-1.000000000000000E+20
 20
-1.000000000000000E+20
 30
-1.000000000000000E+20
  9
$LIMMIN
 10
0.0
 20
0.0
  9
$LIMMAX
 10
12.0
 20
9.0
  9
$ORTHOMODE
 70
     0
  9
$REGENMODE
 70
     1
  9
$FILLMODE
 70
     1
  9
$QTEXTMODE
 70
     0
  9
$MIRRTEXT
 70
     0
  9
$LTSCALE
 40
1.0
  9
$ATTMODE
 70
     1
  9
$TEXTSIZE
 40
0.2
  9
$TRACEWID
 40
0.05
  9
$TEXTSTYLE
  7
Standard
  9
$CLAYER
  8
0
  9
$CELTYPE
  6
ByLayer
  9
$CECOLOR
 62
   256
  9
$CELTSCALE
 40
1.0
  9
$DISPSILH
 70
     0
  9
$DIMSCALE
 40
1.0
  9
$DIMASZ
 40
0.18
  9
$DIMEXO
 40
0.0625
  9
$DIMDLI
 40
0.38
  9
$DIMRND
 40
0.0
  9
$DIMDLE
 40
0.0
  9
$DIMEXE
 40
0.18
  9
$DIMTP
 40
0.0
  9
$DIMTM
 40
0.0
  9
$DIMTXT
 40
0.18
  9
$DIMCEN
 40
0.09
  9
$DIMTSZ
 40
0.0
  9
$DIMTOL
 70
     0
  9
$DIMLIM
 70
     0
  9
$DIMTIH
 70
     1
  9
$DIMTOH
 70
     1
  9
$DIMSE1
 70
     0
  9
$DIMSE2
 70
     0
  9
$DIMTAD
 70
     0
  9
$DIMZIN
 70
     0
  9
$DIMBLK
  1

  9
$DIMASO
 70
     1
  9
$DIMSHO
 70
     1
  9
$DIMPOST
  1

  9
$DIMAPOST
  1

  9
$DIMALT
 70
     0
  9
$DIMALTD
 70
     2
  9
$DIMALTF
 40
25.4
  9
$DIMLFAC
 40
1.0
  9
$DIMTOFL
 70
     0
  9
$DIMTVP
 40
0.0
  9
$DIMTIX
 70
     0
  9
$DIMSOXD
 70
     0
  9
$DIMSAH
 70
     0
  9
$DIMBLK1
  1

  9
$DIMBLK2
  1

  9
$DIMSTYLE
  2
Standard
  9
$DIMCLRD
 70
     0
  9
$DIMCLRE
 70
     0
  9
$DIMCLRT
 70
     0
  9
$DIMTFAC
 40
1.0
  9
$DIMGAP
 40
0.09
  9
$DIMJUST
 70
     0
  9
$DIMSD1
 70
     0
  9
$DIMSD2
 70
     0
  9
$DIMTOLJ
 70
     1
  9
$DIMTZIN
 70
     0
  9
$DIMALTZ
 70
     0
  9
$DIMALTTZ
 70
     0
  9
$DIMUPT
 70
     0
  9
$DIMDEC
 70
     4
  9
$DIMTDEC
 70
     4
  9
$DIMALTU
 70
     2
  9
$DIMALTTD
 70
     2
  9
$DIMTXSTY
  7
Standard
  9
$DIMAUNIT
 70
     0
  9
$DIMADEC
 70
     0
  9
$DIMALTRND
 40
0.0
  9
$DIMAZIN
 70
     0
  9
$DIMDSEP
 70
    46
  9
$DIMATFIT
 70
     3
  9
$DIMFRAC
 70
     0
  9
$DIMLDRBLK
  1

  9
$DIMLUNIT
 70
     2
  9
$DIMLWD
 70
    -2
  9
$DIMLWE
 70
    -2
  9
$DIMTMOVE
 70
     0
  9
$DIMFXL
 40
1.0
  9
$DIMFXLON
 70
     0
  9
$DIMJOGANG
 40
0.7853981633974483
  9
$DIMTFILL
 70
     0
  9
$DIMTFILLCLR
 70
     0
  9
$DIMARCSYM
 70
     0
  9
$DIMLTYPE
  6

  9
$DIMLTEX1
  6

  9
$DIMLTEX2
  6

  9
$DIMTXTDIRECTION
 70
     0
  9
$LUNITS
 70
     2
  9
$LUPREC
 70
     4
  9
$SKETCHINC
 40
0.1
  9
$FILLETRAD
 40
0.0
  9
$AUNITS
 70
     0
  9
$AUPREC
 70
     0
  9
$MENU
  1
.
  9
$ELEVATION
 40
0.0
  9
$PELEVATION
 40
0.0
  9
$THICKNESS
 40
0.0
  9
$LIMCHECK
 70
     0
  9
$CHAMFERA
 40
0.0
  9
$CHAMFERB
 40
0.0
  9
$CHAMFERC
 40
0.0
  9
$CHAMFERD
 40
0.0
  9
$SKPOLY
 70
     0
  9
$TDCREATE
 40
2460715.607557871
  9
$TDUCREATE
 40
2460715.378391204
  9
$TDUPDATE
 40
2460715.607557871
  9
$TDUUPDATE
 40
2460715.378391204
  9
$TDINDWG
 40
0.0000000000
  9
$TDUSRTIMER
 40
0.0000000000
  9
$USRTIMER
 70
     1
  9
$ANGBASE
 50
0.0
  9
$ANGDIR
 70
     0
  9
$PDMODE
 70
     0
  9
$PDSIZE
 40
0.0
  9
$PLINEWID
 40
0.0
  9
$SPLFRAME
 70
     0
  9
$SPLINETYPE
 70
     6
  9
$SPLINESEGS
 70
     8
  9
$HANDSEED
  5
94
  9
$SURFTAB1
 70
     6
  9
$SURFTAB2
 70
     6
  9
$SURFTYPE
 70
     6
  9
$SURFU
 70
     6
  9
$SURFV
 70
     6
  9
$UCSBASE
  2

  9
$UCSNAME
  2

  9
$UCSORG
 10
0.0
 20
0.0
 30
0.0
  9
$UCSXDIR
 10
1.0
 20
0.0
 30
0.0
  9
$UCSYDIR
 10
0.0
 20
1.0
 30
0.0
  9
$UCSORTHOREF
  2

  9
$UCSORTHOVIEW
 70
     0
  9
$UCSORGTOP
 10
0.0
 20
0.0
 30
0.0
  9
$UCSORGBOTTOM
 10
0.0
 20
0.0
 30
0.0
  9
$UCSORGLEFT
 10
0.0
 20
0.0
 30
0.0
  9
$UCSORGRIGHT
 10
0.0
 20
0.0
 30
0.0
  9
$UCSORGFRONT
 10
0.0
 20
0.0
 30
0.0
  9
$UCSORGBACK
 10
0.0
 20
0.0
 30
0.0
  9
$PUCSBASE
  2

  9
$PUCSNAME
  2

  9
$PUCSORG
 10
0.0
 20
0.0
 30
0.0
  9
$PUCSXDIR
 10
1.0
 20
0.0
 30
0.0
  9
$PUCSYDIR
 10
0.0
 20
1.0
 30
0.0
  9
$PUCSORTHOREF
  2

  9
$PUCSORTHOVIEW
 70
     0
  9
$PUCSORGTOP
 10
0.0
 20
0.0
 30
0.0
  9
$PUCSORGBOTTOM
 10
0.0
 20
0.0
 30
0.0
  9
$PUCSORGLEFT
 10
0.0
 20
0.0
 30
0.0
  9
$PUCSORGRIGHT
 10
0.0
 20
0.0
 30
0.0
  9
$PUCSORGFRONT
 10
0.0
 20
0.0
 30
0.0
  9
$PUCSORGBACK
 10
0.0
 20
0.0
 30
0.0
  9
$USERI1
 70
     0
  9
$USERI2
 70
     0
  9
$USERI3
 70
     0
  9
$USERI4
 70
     0
  9
$USERI5
 70
     0
  9
$USERR1
 40
0.0
  9
$USERR2
 40
0.0
  9
$USERR3
 40
0.0
  9
$USERR4
 40
0.0
  9
$USERR5
 40
0.0
  9
$WORLDVIEW
 70
     1
  9
$SHADEDGE
 70
     3
  9
$SHADEDIF
 70
    70
  9
$TILEMODE
 70
     1
  9
$MAXACTVP
 70
    64
  9
$PINSBASE
 10
0.0
 20
0.0
 30
0.0
  9
$PLIMCHECK
 70
     0
  9
$PEXTMIN
 10
1.000000000000000E+20
 20
1.000000000000000E+20
 30
1.000000000000000E+20
  9
$PEXTMAX
 10
-1.000000000000000E+20
 20
-1.000000000000000E+20
 30
-1.000000000000000E+20
  9
$PLIMMIN
 10
0.0
 20
0.0
  9
$PLIMMAX
 10
12.0
 20
9.0
  9
$UNITMODE
 70
     0
  9
$VISRETAIN
 70
     1
  9
$PLINEGEN
 70
     0
  9
$PSLTSCALE
 70
     1
  9
$TREEDEPTH
 70
  3020
  9
$CMLSTYLE
  2
Standard
  9
$CMLJUST
 70
     0
  9
$CMLSCALE
 40
1.0
  9
$PROXYGRAPHICS
 70
     1
  9
$MEASUREMENT
 70
     0
  9
$CELWEIGHT
370
    -1
  9
$ENDCAPS
280
     0
  9
$JOINSTYLE
280
     0
  9
$LWDISPLAY
290
     1
  9
$INSUNITS
 70
     0
  9
$HYPERLINKBASE
  1

  9
$STYLESHEET
  1

  9
$XEDIT
290
     1
  9
$CEPSNTYPE
380
     0
  9
$PSTYLEMODE
290
     1
  9
$FINGERPRINTGUID
  2
{773158E8-E814-E04A-BAE8-899016D2F620}
  9
$VERSIONGUID
  2
{67C13B45-FD6C-C542-8ECD-3271447C952A}
  9
$EXTNAMES
290
     1
  9
$PSVPSCALE
 40
0.0
  9
$OLESTARTUP
290
     0
  9
$SORTENTS
280
   127
  9
$INDEXCTL
280
     0
  9
$HIDETEXT
280
     1
  9
$XCLIPFRAME
280
     2
  9
$HALOGAP
280
     0
  9
$OBSCOLOR
 70
   257
  9
$OBSLTYPE
280
     0
  9
$INTERSECTIONDISPLAY
280
     0
  9
$INTERSECTIONCOLOR
 70
   257
  9
$DIMASSOC
280
     2
  9
$PROJECTNAME
  1

  9
$CAMERADISPLAY
290
     0
  9
$LENSLENGTH
 40
50.0
  9
$CAMERAHEIGHT
 40
0.0
  9
$STEPSPERSEC
 40
2.0
  9
$STEPSIZE
 40
6.0
  9
$3DDWFPREC
 40
2.0
  9
$PSOLWIDTH
 40
0.25
  9
$PSOLHEIGHT
 40
4.0
  9
$LOFTANG1
 40
1.570796326794896
  9
$LOFTANG2
 40
1.570796326794896
  9
$LOFTMAG1
 40
0.0
  9
$LOFTMAG2
 40
0.0
  9
$LOFTPARAM
 70
     7
  9
$LOFTNORMALS
280
     1
  9
$LATITUDE
 40
37.795
  9
$LONGITUDE
 40
-122.394
  9
$NORTHDIRECTION
 40
0.0
  9
$TIMEZONE
 70
 -8000
  9
$LIGHTGLYPHDISPLAY
280
     1
  9
$TILEMODELIGHTSYNCH
280
     1
  9
$CMATERIAL
347
11
  9
$SOLIDHIST
280
     0
  9
$SHOWHIST
280
     1
  9
$DWFFRAME
280
     2
  9
$DGNFRAME
280
     0
  9
$REALWORLDSCALE
290
     1
  9
$INTERFERECOLOR
 62
     1
  9
$INTERFEREOBJVS
345
33
  9
$INTERFEREVPVS
346
30
  9
$CSHADOW
280
     0
  9
$SHADOWPLANELOCATION
 40
0.0
  0
ENDSEC
  0
SECTION
  2
CLASSES
  0
CLASS
  1
ACDBDICTIONARYWDFLT
  2
AcDbDictionaryWithDefault
  3
ObjectDBX Classes
 90
        0
 91
        1
280
     0
281
     0
  0
CLASS
  1
MATERIAL
  2
AcDbMaterial
  3
ObjectDBX Classes
 90
     1153
 91
        3
280
     0
281
     0
  0
CLASS
  1
VISUALSTYLE
  2
AcDbVisualStyle
  3
ObjectDBX Classes
 90
     4095
 91
       24
280
     0
281
     0
  0
CLASS
  1
SCALE
  2
AcDbScale
  3
ObjectDBX Classes
 90
     1153
 91
       17
280
     0
281
     0
  0
CLASS
  1
TABLESTYLE
  2
AcDbTableStyle
  3
ObjectDBX Classes
 90
     4095
 91
        1
280
     0
281
     0
  0
CLASS
  1
MLEADERSTYLE
  2
AcDbMLeaderStyle
  3
ACDB_MLEADERSTYLE_CLASS
 90
     4095
 91
        1
280
     0
281
     0
  0
CLASS
  1
ACDBSECTIONVIEWSTYLE
  2
AcDbSectionViewStyle
  3
ObjectDBX Classes
 90
     1025
 91
        1
280
     0
281
     0
  0
CLASS
  1
ACDBDETAILVIEWSTYLE
  2
AcDbDetailViewStyle
  3
ObjectDBX Classes
 90
     1025
 91
        1
280
     0
281
     0
  0
CLASS
  1
DICTIONARYVAR
  2
AcDbDictionaryVar
  3
ObjectDBX Classes
 90
        0
 91
        5
280
     0
281
     0
  0
CLASS
  1
CELLSTYLEMAP
  2
AcDbCellStyleMap
  3
ObjectDBX Classes
 90
     1152
 91
        1
280
     0
281
     0
  0
ENDSEC
  0
SECTION
  2
TABLES
  0
TABLE
  2
VPORT
  5
8
330
0
100
AcDbSymbolTable
 70
     1
  0
VPORT
  5
57
330
8
100
AcDbSymbolTableRecord
100
AcDbViewportTableRecord
  2
*Active
 70
     0
 10
0.0
 20
0.0
 11
1.0
 21
1.0
 12
0.0
 22
0.0
 13
0.0
 23
0.0
 14
1.0
 24
1.0
 15
0.0
 25
0.0
 16
0.0
 26
0.0
 36
1.0
 17
683.0
 27
-384.0
 37
0.0
 40
783.36
 41
1.778645833333333
 42
50.0
 43
0.0
 44
0.0
 50
0.0
 51
0.0
 71
     0
 72
   100
 73
     1
 74
     1
 75
     0
 76
     0
 77
     0
 78
     0
281
     0
 65
     1
110
0.0
120
0.0
130
0.0
111
1.0
121
0.0
131
0.0
112
0.0
122
1.0
132
0.0
 79
     0
146
0.0
 60
     3
 61
     5
292
     1
282
     1
141
0.0
142
0.0
 63
   250
421
  3355443
  0
ENDTAB
  0
TABLE
  2
LTYPE
  5
5
330
0
100
AcDbSymbolTable
 70
     1
  0
LTYPE
  5
5B
330
5
100
AcDbSymbolTableRecord
100
AcDbLinetypeTableRecord
  2
ByBlock
 70
     0
  3

 72
    65
 73
     0
 40
0.0
  0
LTYPE
  5
5C
330
5
100
AcDbSymbolTableRecord
100
AcDbLinetypeTableRecord
  2
ByLayer
 70
     0
  3

 72
    65
 73
     0
 40
0.0
  0
LTYPE
  5
5D
330
5
100
AcDbSymbolTableRecord
100
AcDbLinetypeTableRecord
  2
Continuous
 70
     0
  3
Solid line
 72
    65
 73
     0
 40
0.0
  0
ENDTAB
  0
TABLE
  2
LAYER
  5
2
330
0
100
AcDbSymbolTable
 70
     2
  0
LAYER
  5
54
330
2
100
AcDbSymbolTableRecord
100
AcDbLayerTableRecord
  2
0
 70
     0
 62
     7
  6
Continuous
370
    -3
390
F
347
21
348
0
  0
LAYER
  5
78
330
2
100
AcDbSymbolTableRecord
100
AcDbLayerTableRecord
  2
Layer 1
 70
     0
 62
     7
  6
Continuous
370
     0
390
F
347
21
348
0
  0
ENDTAB
  0
TABLE
  2
STYLE
  5
3
330
0
100
AcDbSymbolTable
 70
     2
  0
STYLE
  5
55
330
3
100
AcDbSymbolTableRecord
100
AcDbTextStyleTableRecord
  2
Standard
 70
     0
 40
0.0
 41
1.0
 50
0.0
 71
     0
 42
0.2
  3
txt
  4

  0
STYLE
  5
5A
330
3
100
AcDbSymbolTableRecord
100
AcDbTextStyleTableRecord
  2
Annotative
 70
     0
 40
0.0
 41
1.0
 50
0.0
 71
     0
 42
0.2
  3
txt
  4

1001
AcadAnnotative
1000
AnnotativeData
1002
{
1070
     1
1070
     1
1002
}
  0
ENDTAB
  0
TABLE
  2
VIEW
  5
6
330
0
100
AcDbSymbolTable
 70
     0
  0
ENDTAB
  0
TABLE
  2
UCS
  5
7
330
0
100
AcDbSymbolTable
 70
     0
  0
ENDTAB
  0
TABLE
  2
APPID
  5
9
330
0
100
AcDbSymbolTable
 70
     2
  0
APPID
  5
56
330
9
100
AcDbSymbolTableRecord
100
AcDbRegAppTableRecord
  2
ACAD
 70
     0
  0
APPID
  5
5E
330
9
100
AcDbSymbolTableRecord
100
AcDbRegAppTableRecord
  2
AcadAnnotative
 70
     0
  0
ENDTAB
  0
TABLE
  2
DIMSTYLE
  5
A
330
0
100
AcDbSymbolTable
 70
     2
100
AcDbDimStyleTable
 71
     0
  0
DIMSTYLE
105
58
330
A
100
AcDbSymbolTableRecord
100
AcDbDimStyleTableRecord
  2
Standard
 70
     0
340
55
  0
DIMSTYLE
105
59
330
A
100
AcDbSymbolTableRecord
100
AcDbDimStyleTableRecord
  2
Annotative
 70
     0
340
55
1001
AcadAnnotative
1000
AnnotativeData
1002
{
1070
     1
1070
     1
1002
}
  0
ENDTAB
  0
TABLE
  2
BLOCK_RECORD
  5
1
330
0
100
AcDbSymbolTable
 70
     1
  0
BLOCK_RECORD
  5
70
330
1
100
AcDbSymbolTableRecord
100
AcDbBlockTableRecord
  2
*Model_Space
340
73
 70
     0
280
     1
281
     0
  0
BLOCK_RECORD
  5
6C
330
1
100
AcDbSymbolTableRecord
100
AcDbBlockTableRecord
  2
*Paper_Space
340
6F
 70
     0
280
     1
281
     0
  0
BLOCK_RECORD
  5
74
330
1
100
AcDbSymbolTableRecord
100
AcDbBlockTableRecord
  2
*Paper_Space0
340
77
 70
     0
280
     1
281
     0
  0
ENDTAB
  0
ENDSEC
  0
SECTION
  2
BLOCKS
  0
BLOCK
  5
71
330
70
100
AcDbEntity
  8
0
100
AcDbBlockBegin
  2
*Model_Space
 70
     0
 10
0.0
 20
0.0
 30
0.0
  3
*Model_Space
  1

  0
ENDBLK
  5
72
330
70
100
AcDbEntity
  8
0
100
AcDbBlockEnd
  0
BLOCK
  5
6D
330
6C
100
AcDbEntity
 67
     1
  8
0
100
AcDbBlockBegin
  2
*Paper_Space
 70
     0
 10
0.0
 20
0.0
 30
0.0
  3
*Paper_Space
  1

  0
ENDBLK
  5
6E
330
6C
100
AcDbEntity
 67
     1
  8
0
100
AcDbBlockEnd
  0
BLOCK
  5
75
330
74
100
AcDbEntity
 67
     1
  8
0
100
AcDbBlockBegin
  2
*Paper_Space0
 70
     0
 10
0.0
 20
0.0
 30
0.0
  3
*Paper_Space0
  1

  0
ENDBLK
  5
76
330
74
100
AcDbEntity
 67
     1
  8
0
100
AcDbBlockEnd
  0
ENDSEC
  0
SECTION
  2
ENTITIES
  0
SPLINE
  5
79
330
70
100
AcDbEntity
  8
Layer 1
100
AcDbSpline
210
0.0
220
0.0
230
1.0
 70
     9
 71
     3
 72
    41
 73
    37
 74
     0
 42
0.0000000001
 43
0.0000000001
 40
0.0
 40
0.0
 40
0.0
 40
0.0
 40
1.0
 40
1.0
 40
1.0
 40
2.0
 40
2.0
 40
2.0
 40
3.0
 40
3.0
 40
3.0
 40
4.0
 40
4.0
 40
4.0
 40
5.0
 40
5.0
 40
5.0
 40
6.0
 40
6.0
 40
6.0
 40
7.0
 40
7.0
 40
7.0
 40
8.0
 40
8.0
 40
8.0
 40
9.0
 40
9.0
 40
9.0
 40
10.0
 40
10.0
 40
10.0
 40
11.0
 40
11.0
 40
11.0
 40
12.0
 40
12.0
 40
12.0
 40
12.0
 10
562.6865481898621
 20
-601.3449890840347
 30
0.0
 10
552.949075272486
 20
-601.3449890840347
 30
0.0
 10
545.0484714659905
 20
-596.7639598983951
 30
0.0
 10
539.0290409889476
 20
-587.601901527114
 30
0.0
 10
532.9873233287835
 20
-578.4398431558329
 30
0.0
 10
529.9776080902611
 20
-566.8656362014153
 30
0.0
 10
529.9776080902611
 20
-552.856993480731
 30
0.0
 10
529.9776080902611
 20
-552.856993480731
 30
0.0
 10
529.9776080902611
 20
-148.4000000639462
 30
0.0
 10
529.9776080902611
 20
-148.4000000639462
 30
0.0
 10
529.9776080902611
 20
-148.4000000639462
 30
0.0
 10
445.0629000946991
 20
-148.4000000639462
 30
0.0
 10
445.0629000946991
 20
-148.4000000639462
 30
0.0
 10
445.0629000946991
 20
-148.4000000639462
 30
0.0
 10
445.0629000946991
 20
-576.7358867006678
 30
0.0
 10
445.0629000946991
 20
-576.7358867006678
 30
0.0
 10
445.0629000946991
 20
-595.5468095521846
 30
0.0
 10
447.9398377513389
 20
-612.5430154021014
 30
0.0
 10
453.7601693924798
 20
-627.7466563597063
 30
0.0
 10
459.5583489243308
 20
-642.9502973173166
 30
0.0
 10
467.5474260941363
 20
-654.8786678726446
 30
0.0
 10
477.7718401942983
 20
-663.5759371704225
 30
0.0
 10
487.9739671113384
 20
-672.2510543589178
 30
0.0
 10
499.5703261750441
 20
-676.5886804900819
 30
0.0
 10
512.5830694947025
 20
-676.5886804900819
 30
0.0
 10
512.5830694947025
 20
-676.5886804900819
 30
0.0
 10
886.6106288869813
 20
-676.5886804900819
 30
0.0
 10
886.6106288869813
 20
-676.5886804900819
 30
0.0
 10
906.6165499754205
 20
-676.5886804900819
 30
0.0
 10
924.6971285896725
 20
-668.1791184653502
 30
0.0
 10
937.7984803464752
 20
-654.5466563810241
 30
0.0
 10
950.8996970294429
 20
-640.9364814798209
 30
0.0
 10
958.9993996718385
 20
-622.1255586283096
 30
0.0
 10
958.9993996718385
 20
-601.3449890840347
 30
0.0
 10
958.9993996718385
 20
-601.3449890840347
 30
0.0
 10
562.6865481898621
 20
-601.3449890840347
 30
0.0
 10
562.6865481898621
 20
-601.3449890840347
 30
0.0
  0
HATCH
  5
7A
330
70
100
AcDbEntity
  8
Layer 1
 62
   190
420
  9765119
440
 33554687
100
AcDbHatch
 10
0.0
 20
0.0
 30
0.0
210
0.0
220
0.0
230
1.0
  2
SOLID
 70
     1
 71
     1
 91
        1
 92
        1
 93
        1
 72
     4
 94
        3
 73
     0
 74
     0
 95
       41
 96
       37
 40
0.0
 40
0.0
 40
0.0
 40
0.0
 40
1.0
 40
1.0
 40
1.0
 40
2.0
 40
2.0
 40
2.0
 40
3.0
 40
3.0
 40
3.0
 40
4.0
 40
4.0
 40
4.0
 40
5.0
 40
5.0
 40
5.0
 40
6.0
 40
6.0
 40
6.0
 40
7.0
 40
7.0
 40
7.0
 40
8.0
 40
8.0
 40
8.0
 40
9.0
 40
9.0
 40
9.0
 40
10.0
 40
10.0
 40
10.0
 40
11.0
 40
11.0
 40
11.0
 40
12.0
 40
12.0
 40
12.0
 40
12.0
 10
562.6865481898621
 20
-601.3449890840347
 10
552.949075272486
 20
-601.3449890840347
 10
545.0484714659905
 20
-596.7639598983951
 10
539.0290409889476
 20
-587.601901527114
 10
532.9873233287835
 20
-578.4398431558329
 10
529.9776080902611
 20
-566.8656362014153
 10
529.9776080902611
 20
-552.856993480731
 10
529.9776080902611
 20
-552.856993480731
 10
529.9776080902611
 20
-148.4000000639462
 10
529.9776080902611
 20
-148.4000000639462
 10
529.9776080902611
 20
-148.4000000639462
 10
445.0629000946991
 20
-148.4000000639462
 10
445.0629000946991
 20
-148.4000000639462
 10
445.0629000946991
 20
-148.4000000639462
 10
445.0629000946991
 20
-576.7358867006678
 10
445.0629000946991
 20
-576.7358867006678
 10
445.0629000946991
 20
-595.5468095521846
 10
447.9398377513389
 20
-612.5430154021014
 10
453.7601693924798
 20
-627.7466563597063
 10
459.5583489243308
 20
-642.9502973173166
 10
467.5474260941363
 20
-654.8786678726446
 10
477.7718401942983
 20
-663.5759371704225
 10
487.9739671113384
 20
-672.2510543589178
 10
499.5703261750441
 20
-676.5886804900819
 10
512.5830694947025
 20
-676.5886804900819
 10
512.5830694947025
 20
-676.5886804900819
 10
886.6106288869813
 20
-676.5886804900819
 10
886.6106288869813
 20
-676.5886804900819
 10
906.6165499754205
 20
-676.5886804900819
 10
924.6971285896725
 20
-668.1791184653502
 10
937.7984803464752
 20
-654.5466563810241
 10
950.8996970294429
 20
-640.9364814798209
 10
958.9993996718385
 20
-622.1255586283096
 10
958.9993996718385
 20
-601.3449890840347
 10
958.9993996718385
 20
-601.3449890840347
 10
562.6865481898621
 20
-601.3449890840347
 10
562.6865481898621
 20
-601.3449890840347
 97
        0
 97
        1
330
79
 75
     2
 76
     1
 98
        1
 10
0.0
 20
0.0
450
        0
451
        0
460
0.0
461
0.0
452
        0
462
0.0
453
        0
470

  0
SPLINE
  5
7B
330
70
100
AcDbEntity
  8
Layer 1
100
AcDbSpline
210
0.0
220
0.0
230
1.0
 70
     9
 71
     3
 72
    53
 73
    49
 74
     0
 42
0.0000000001
 43
0.0000000001
 40
0.0
 40
0.0
 40
0.0
 40
0.0
 40
1.0
 40
1.0
 40
1.0
 40
2.0
 40
2.0
 40
2.0
 40
3.0
 40
3.0
 40
3.0
 40
4.0
 40
4.0
 40
4.0
 40
5.0
 40
5.0
 40
5.0
 40
6.0
 40
6.0
 40
6.0
 40
7.0
 40
7.0
 40
7.0
 40
8.0
 40
8.0
 40
8.0
 40
9.0
 40
9.0
 40
9.0
 40
10.0
 40
10.0
 40
10.0
 40
11.0
 40
11.0
 40
11.0
 40
12.0
 40
12.0
 40
12.0
 40
13.0
 40
13.0
 40
13.0
 40
14.0
 40
14.0
 40
14.0
 40
15.0
 40
15.0
 40
15.0
 40
16.0
 40
16.0
 40
16.0
 40
16.0
 10
736.9420636754621
 20
-241.0162130301032
 30
0.0
 10
732.6044375442961
 20
-229.6854091301593
 30
0.0
 10
726.452229485374
 20
-220.8773792859465
 30
0.0
 10
718.485169351019
 20
-214.6145457544299
 30
0.0
 10
710.5403963997887
 20
-208.3515771490766
 30
0.0
 10
701.7323665555777
 20
-205.2090843286742
 30
0.0
 10
692.0835020753474
 20
-205.2090843286742
 30
0.0
 10
692.0835020753474
 20
-205.2090843286742
 30
0.0
 10
593.6912616866248
 20
-205.2090843286742
 30
0.0
 10
593.6912616866248
 20
-205.2090843286742
 30
0.0
 10
578.7311588573266
 20
-205.2090843286742
 30
0.0
 10
566.4266076656458
 20
-212.202262097454
 30
0.0
 10
556.7776081115762
 20
-226.1887527088502
 30
0.0
 10
547.1287436313469
 20
-240.1752433202464
 30
0.0
 10
542.3043113912308
 20
-257.7911679348326
 30
0.0
 10
542.3043113912308
 20
-279.0142393694823
 30
0.0
 10
542.3043113912308
 20
-279.0142393694823
 30
0.0
 10
542.3043113912308
 20
-329.1398701739263
 30
0.0
 10
542.3043113912308
 20
-329.1398701739263
 30
0.0
 10
542.3043113912308
 20
-329.1398701739263
 30
0.0
 10
624.0765265663922
 20
-329.1398701739263
 30
0.0
 10
624.0765265663922
 20
-329.1398701739263
 30
0.0
 10
624.0765265663922
 20
-329.1398701739263
 30
0.0
 10
624.0765265663922
 20
-307.2306236467493
 30
0.0
 10
624.0765265663922
 20
-307.2306236467493
 30
0.0
 10
624.0765265663922
 20
-298.0685652754701
 30
0.0
 10
625.8690914586996
 20
-290.3450432694271
 30
0.0
 10
629.4985254618905
 20
-284.0600576286242
 30
0.0
 10
633.1056722819548
 20
-277.79708902327
 30
0.0
 10
637.5760759950008
 20
-274.6545962028668
 30
0.0
 10
642.8874494179035
 20
-274.6545962028668
 30
0.0
 10
648.1766707315209
 20
-274.6545962028668
 30
0.0
 10
652.6469393707302
 20
-277.79708902327
 30
0.0
 10
656.2763733739184
 20
-284.0600576286242
 30
0.0
 10
659.8836552678212
 20
-290.3450432694271
 30
0.0
 10
661.6983722694158
 20
-298.0685652754701
 30
0.0
 10
661.6983722694158
 20
-307.2306236467493
 30
0.0
 10
661.6983722694158
 20
-307.2306236467493
 30
0.0
 10
661.6983722694158
 20
-329.1398701739263
 30
0.0
 10
661.6983722694158
 20
-329.1398701739263
 30
0.0
 10
661.6983722694158
 20
-329.1398701739263
 30
0.0
 10
743.4484353352909
 20
-329.1398701739263
 30
0.0
 10
743.4484353352909
 20
-329.1398701739263
 30
0.0
 10
743.4484353352909
 20
-329.1398701739263
 30
0.0
 10
743.4484353352909
 20
-279.0142393694823
 30
0.0
 10
743.4484353352909
 20
-279.0142393694823
 30
0.0
 10
743.4484353352909
 20
-265.0277487580852
 30
0.0
 10
741.2795547327914
 20
-252.3470169300481
 30
0.0
 10
736.9420636754621
 20
-241.0162130301032
 30
0.0
  0
SPLINE
  5
7C
330
70
100
AcDbEntity
  8
Layer 1
100
AcDbSpline
210
0.0
220
0.0
230
1.0
 70
     9
 71
     3
 72
    32
 73
    28
 74
     0
 42
0.0000000001
 43
0.0000000001
 40
0.0
 40
0.0
 40
0.0
 40
0.0
 40
1.0
 40
1.0
 40
1.0
 40
2.0
 40
2.0
 40
2.0
 40
3.0
 40
3.0
 40
3.0
 40
4.0
 40
4.0
 40
4.0
 40
5.0
 40
5.0
 40
5.0
 40
6.0
 40
6.0
 40
6.0
 40
7.0
 40
7.0
 40
7.0
 40
8.0
 40
8.0
 40
8.0
 40
9.0
 40
9.0
 40
9.0
 40
9.0
 10
661.6983722694158
 20
-486.6647349733702
 30
0.0
 10
661.6983722694158
 20
-495.8267933446531
 30
0.0
 10
659.7508776859394
 20
-503.5503153506943
 30
0.0
 10
655.9001927375621
 20
-509.8132839560494
 30
0.0
 10
652.0273556798993
 20
-516.0982695968505
 30
0.0
 10
647.2249404752319
 20
-519.2187453818023
 30
0.0
 10
641.4267609433782
 20
-519.2187453818023
 30
0.0
 10
636.1155225943148
 20
-519.2187453818023
 30
0.0
 10
631.5344934086742
 20
-516.0982695968505
 30
0.0
 10
627.6838084602959
 20
-509.8132839560494
 30
0.0
 10
623.8109714026314
 20
-503.5503153506943
 30
0.0
 10
621.9076459638927
 20
-495.8267933446531
 30
0.0
 10
621.9076459638927
 20
-486.6647349733702
 30
0.0
 10
621.9076459638927
 20
-486.6647349733702
 30
0.0
 10
621.9076459638927
 20
-452.6501711642522
 30
0.0
 10
621.9076459638927
 20
-452.6501711642522
 30
0.0
 10
621.9076459638927
 20
-443.0233237194697
 30
0.0
 10
624.0765265663922
 20
-435.1670241315459
 30
0.0
 10
628.4140176237197
 20
-429.1475936545066
 30
0.0
 10
632.7516437548856
 20
-423.1058759943389
 30
0.0
 10
638.0630171777893
 20
-420.0961607558201
 30
0.0
 10
644.3258507093069
 20
-420.0961607558201
 30
0.0
 10
644.3258507093069
 20
-420.0961607558201
 30
0.0
 10
661.6983722694158
 20
-420.0961607558201
 30
0.0
 10
661.6983722694158
 20
-420.0961607558201
 30
0.0
 10
661.6983722694158
 20
-420.0961607558201
 30
0.0
 10
661.6983722694158
 20
-486.6647349733702
 30
0.0
 10
661.6983722694158
 20
-486.6647349733702
 30
0.0
  0
SPLINE
  5
7D
330
70
100
AcDbEntity
  8
Layer 1
100
AcDbSpline
210
0.0
220
0.0
230
1.0
 70
    11
 71
     3
 72
    47
 73
    43
 74
     0
 42
0.0000000001
 43
0.0000000001
 40
0.0
 40
0.0
 40
0.0
 40
0.0
 40
1.0
 40
1.0
 40
1.0
 40
2.0
 40
2.0
 40
2.0
 40
3.0
 40
3.0
 40
3.0
 40
4.0
 40
4.0
 40
4.0
 40
5.0
 40
5.0
 40
5.0
 40
6.0
 40
6.0
 40
6.0
 40
7.0
 40
7.0
 40
7.0
 40
8.0
 40
8.0
 40
8.0
 40
9.0
 40
9.0
 40
9.0
 40
10.0
 40
10.0
 40
10.0
 40
11.0
 40
11.0
 40
11.0
 40
12.0
 40
12.0
 40
12.0
 40
13.0
 40
13.0
 40
13.0
 40
14.0
 40
14.0
 40
14.0
 40
14.0
 10
661.6983722694158
 20
-365.832137729949
 30
0.0
 10
661.6983722694158
 20
-365.832137729949
 30
0.0
 10
630.5828982262227
 20
-365.832137729949
 30
0.0
 10
630.5828982262227
 20
-365.832137729949
 30
0.0
 10
613.2103766661121
 20
-365.832137729949
 30
0.0
 10
597.6527071814334
 20
-370.4131669155886
 30
0.0
 10
583.9096196245118
 20
-379.5752252868679
 30
0.0
 10
570.1666671414286
 20
-388.7372836581508
 30
0.0
 10
559.4332948230294
 20
-401.3958633769016
 30
0.0
 10
551.7097728169865
 20
-417.5512345907991
 30
0.0
 10
543.9862508109436
 20
-433.7286228401462
 30
0.0
 10
540.1355658625662
 20
-451.9198269269873
 30
0.0
 10
540.1355658625662
 20
-472.1914382530249
 30
0.0
 10
540.1355658625662
 20
-472.1914382530249
 30
0.0
 10
540.1355658625662
 20
-514.8811192506382
 30
0.0
 10
540.1355658625662
 20
-514.8811192506382
 30
0.0
 10
540.1355658625662
 20
-528.8676098620344
 30
0.0
 10
542.3043113912308
 20
-541.5483416900733
 30
0.0
 10
546.6419375223958
 20
-552.856993480731
 30
0.0
 10
550.9794285797243
 20
-564.209949489963
 30
0.0
 10
557.1317717124848
 20
-573.0179793341721
 30
0.0
 10
565.0986967730005
 20
-579.2808128656888
 30
0.0
 10
573.0657569073555
 20
-585.5437814710458
 30
0.0
 10
581.8514995684436
 20
-588.6862742914454
 30
0.0
 10
591.5003640486738
 20
-588.6862742914454
 30
0.0
 10
591.5003640486738
 20
-588.6862742914454
 30
0.0
 10
690.6449657101075
 20
-588.6862742914454
 30
0.0
 10
690.6449657101075
 20
-588.6862742914454
 30
0.0
 10
706.0699926867437
 20
-588.6862742914454
 30
0.0
 10
718.7285724054927
 20
-581.5603189407847
 30
0.0
 10
728.6209750140369
 20
-567.3304252749148
 30
0.0
 10
738.4912255132949
 20
-553.1225486444945
 30
0.0
 10
743.4484353352909
 20
-535.1304433935511
 30
0.0
 10
743.4484353352909
 20
-513.4425828854
 30
0.0
 10
743.4484353352909
 20
-513.4425828854
 30
0.0
 10
743.4484353352909
 20
-342.4181686573465
 30
0.0
 10
743.4484353352909
 20
-342.4181686573465
 30
0.0
 10
743.4484353352909
 20
-342.4181686573465
 30
0.0
 10
661.6983722694158
 20
-342.4181686573465
 30
0.0
 10
661.6983722694158
 20
-342.4181686573465
 30
0.0
 10
661.6983722694158
 20
-342.4181686573465
 30
0.0
 10
661.6983722694158
 20
-365.832137729949
 30
0.0
 10
661.6983722694158
 20
-365.832137729949
 30
0.0
  0
HATCH
  5
7E
330
70
100
AcDbEntity
  8
Layer 1
 62
   190
420
  9765119
440
 33554687
100
AcDbHatch
 10
0.0
 20
0.0
 30
0.0
210
0.0
220
0.0
230
1.0
  2
SOLID
 70
     1
 71
     1
 91
        3
 92
        1
 93
        1
 72
     4
 94
        3
 73
     0
 74
     0
 95
       53
 96
       49
 40
0.0
 40
0.0
 40
0.0
 40
0.0
 40
1.0
 40
1.0
 40
1.0
 40
2.0
 40
2.0
 40
2.0
 40
3.0
 40
3.0
 40
3.0
 40
4.0
 40
4.0
 40
4.0
 40
5.0
 40
5.0
 40
5.0
 40
6.0
 40
6.0
 40
6.0
 40
7.0
 40
7.0
 40
7.0
 40
8.0
 40
8.0
 40
8.0
 40
9.0
 40
9.0
 40
9.0
 40
10.0
 40
10.0
 40
10.0
 40
11.0
 40
11.0
 40
11.0
 40
12.0
 40
12.0
 40
12.0
 40
13.0
 40
13.0
 40
13.0
 40
14.0
 40
14.0
 40
14.0
 40
15.0
 40
15.0
 40
15.0
 40
16.0
 40
16.0
 40
16.0
 40
16.0
 10
736.9420636754621
 20
-241.0162130301032
 10
732.6044375442961
 20
-229.6854091301593
 10
726.452229485374
 20
-220.8773792859465
 10
718.485169351019
 20
-214.6145457544299
 10
710.5403963997887
 20
-208.3515771490766
 10
701.7323665555777
 20
-205.2090843286742
 10
692.0835020753474
 20
-205.2090843286742
 10
692.0835020753474
 20
-205.2090843286742
 10
593.6912616866248
 20
-205.2090843286742
 10
593.6912616866248
 20
-205.2090843286742
 10
578.7311588573266
 20
-205.2090843286742
 10
566.4266076656458
 20
-212.202262097454
 10
556.7776081115762
 20
-226.1887527088502
 10
547.1287436313469
 20
-240.1752433202464
 10
542.3043113912308
 20
-257.7911679348326
 10
542.3043113912308
 20
-279.0142393694823
 10
542.3043113912308
 20
-279.0142393694823
 10
542.3043113912308
 20
-329.1398701739263
 10
542.3043113912308
 20
-329.1398701739263
 10
542.3043113912308
 20
-329.1398701739263
 10
624.0765265663922
 20
-329.1398701739263
 10
624.0765265663922
 20
-329.1398701739263
 10
624.0765265663922
 20
-329.1398701739263
 10
624.0765265663922
 20
-307.2306236467493
 10
624.0765265663922
 20
-307.2306236467493
 10
624.0765265663922
 20
-298.0685652754701
 10
625.8690914586996
 20
-290.3450432694271
 10
629.4985254618905
 20
-284.0600576286242
 10
633.1056722819548
 20
-277.79708902327
 10
637.5760759950008
 20
-274.6545962028668
 10
642.8874494179035
 20
-274.6545962028668
 10
648.1766707315209
 20
-274.6545962028668
 10
652.6469393707302
 20
-277.79708902327
 10
656.2763733739184
 20
-284.0600576286242
 10
659.8836552678212
 20
-290.3450432694271
 10
661.6983722694158
 20
-298.0685652754701
 10
661.6983722694158
 20
-307.2306236467493
 10
661.6983722694158
 20
-307.2306236467493
 10
661.6983722694158
 20
-329.1398701739263
 10
661.6983722694158
 20
-329.1398701739263
 10
661.6983722694158
 20
-329.1398701739263
 10
743.4484353352909
 20
-329.1398701739263
 10
743.4484353352909
 20
-329.1398701739263
 10
743.4484353352909
 20
-329.1398701739263
 10
743.4484353352909
 20
-279.0142393694823
 10
743.4484353352909
 20
-279.0142393694823
 10
743.4484353352909
 20
-265.0277487580852
 10
741.2795547327914
 20
-252.3470169300481
 10
736.9420636754621
 20
-241.0162130301032
 97
        0
 97
        1
330
7B
 92
        1
 93
        1
 72
     4
 94
        3
 73
     0
 74
     0
 95
       32
 96
       28
 40
0.0
 40
0.0
 40
0.0
 40
0.0
 40
1.0
 40
1.0
 40
1.0
 40
2.0
 40
2.0
 40
2.0
 40
3.0
 40
3.0
 40
3.0
 40
4.0
 40
4.0
 40
4.0
 40
5.0
 40
5.0
 40
5.0
 40
6.0
 40
6.0
 40
6.0
 40
7.0
 40
7.0
 40
7.0
 40
8.0
 40
8.0
 40
8.0
 40
9.0
 40
9.0
 40
9.0
 40
9.0
 10
661.6983722694158
 20
-486.6647349733702
 10
661.6983722694158
 20
-495.8267933446531
 10
659.7508776859394
 20
-503.5503153506943
 10
655.9001927375621
 20
-509.8132839560494
 10
652.0273556798993
 20
-516.0982695968505
 10
647.2249404752319
 20
-519.2187453818023
 10
641.4267609433782
 20
-519.2187453818023
 10
636.1155225943148
 20
-519.2187453818023
 10
631.5344934086742
 20
-516.0982695968505
 10
627.6838084602959
 20
-509.8132839560494
 10
623.8109714026314
 20
-503.5503153506943
 10
621.9076459638927
 20
-495.8267933446531
 10
621.9076459638927
 20
-486.6647349733702
 10
621.9076459638927
 20
-486.6647349733702
 10
621.9076459638927
 20
-452.6501711642522
 10
621.9076459638927
 20
-452.6501711642522
 10
621.9076459638927
 20
-443.0233237194697
 10
624.0765265663922
 20
-435.1670241315459
 10
628.4140176237197
 20
-429.1475936545066
 10
632.7516437548856
 20
-423.1058759943389
 10
638.0630171777893
 20
-420.0961607558201
 10
644.3258507093069
 20
-420.0961607558201
 10
644.3258507093069
 20
-420.0961607558201
 10
661.6983722694158
 20
-420.0961607558201
 10
661.6983722694158
 20
-420.0961607558201
 10
661.6983722694158
 20
-420.0961607558201
 10
661.6983722694158
 20
-486.6647349733702
 10
661.6983722694158
 20
-486.6647349733702
 97
        0
 97
        1
330
7C
 92
        1
 93
        1
 72
     4
 94
        3
 73
     0
 74
     0
 95
       47
 96
       43
 40
0.0
 40
0.0
 40
0.0
 40
0.0
 40
1.0
 40
1.0
 40
1.0
 40
2.0
 40
2.0
 40
2.0
 40
3.0
 40
3.0
 40
3.0
 40
4.0
 40
4.0
 40
4.0
 40
5.0
 40
5.0
 40
5.0
 40
6.0
 40
6.0
 40
6.0
 40
7.0
 40
7.0
 40
7.0
 40
8.0
 40
8.0
 40
8.0
 40
9.0
 40
9.0
 40
9.0
 40
10.0
 40
10.0
 40
10.0
 40
11.0
 40
11.0
 40
11.0
 40
12.0
 40
12.0
 40
12.0
 40
13.0
 40
13.0
 40
13.0
 40
14.0
 40
14.0
 40
14.0
 40
14.0
 10
661.6983722694158
 20
-365.832137729949
 10
661.6983722694158
 20
-365.832137729949
 10
630.5828982262227
 20
-365.832137729949
 10
630.5828982262227
 20
-365.832137729949
 10
613.2103766661121
 20
-365.832137729949
 10
597.6527071814334
 20
-370.4131669155886
 10
583.9096196245118
 20
-379.5752252868679
 10
570.1666671414286
 20
-388.7372836581508
 10
559.4332948230294
 20
-401.3958633769016
 10
551.7097728169865
 20
-417.5512345907991
 10
543.9862508109436
 20
-433.7286228401462
 10
540.1355658625662
 20
-451.9198269269873
 10
540.1355658625662
 20
-472.1914382530249
 10
540.1355658625662
 20
-472.1914382530249
 10
540.1355658625662
 20
-514.8811192506382
 10
540.1355658625662
 20
-514.8811192506382
 10
540.1355658625662
 20
-528.8676098620344
 10
542.3043113912308
 20
-541.5483416900733
 10
546.6419375223958
 20
-552.856993480731
 10
550.9794285797243
 20
-564.209949489963
 10
557.1317717124848
 20
-573.0179793341721
 10
565.0986967730005
 20
-579.2808128656888
 10
573.0657569073555
 20
-585.5437814710458
 10
581.8514995684436
 20
-588.6862742914454
 10
591.5003640486738
 20
-588.6862742914454
 10
591.5003640486738
 20
-588.6862742914454
 10
690.6449657101075
 20
-588.6862742914454
 10
690.6449657101075
 20
-588.6862742914454
 10
706.0699926867437
 20
-588.6862742914454
 10
718.7285724054927
 20
-581.5603189407847
 10
728.6209750140369
 20
-567.3304252749148
 10
738.4912255132949
 20
-553.1225486444945
 10
743.4484353352909
 20
-535.1304433935511
 10
743.4484353352909
 20
-513.4425828854
 10
743.4484353352909
 20
-513.4425828854
 10
743.4484353352909
 20
-342.4181686573465
 10
743.4484353352909
 20
-342.4181686573465
 10
743.4484353352909
 20
-342.4181686573465
 10
661.6983722694158
 20
-342.4181686573465
 10
661.6983722694158
 20
-342.4181686573465
 10
661.6983722694158
 20
-342.4181686573465
 10
661.6983722694158
 20
-365.832137729949
 10
661.6983722694158
 20
-365.832137729949
 97
        0
 97
        1
330
7D
 75
     2
 76
     1
 98
        1
 10
0.0
 20
0.0
450
        0
451
        0
460
0.0
461
0.0
452
        0
462
0.0
453
        0
470

  0
SPLINE
  5
7F
330
70
100
AcDbEntity
  8
Layer 1
100
AcDbSpline
210
0.0
220
0.0
230
1.0
 70
     9
 71
     3
 72
    44
 73
    40
 74
     0
 42
0.0000000001
 43
0.0000000001
 40
0.0
 40
0.0
 40
0.0
 40
0.0
 40
1.0
 40
1.0
 40
1.0
 40
2.0
 40
2.0
 40
2.0
 40
3.0
 40
3.0
 40
3.0
 40
4.0
 40
4.0
 40
4.0
 40
5.0
 40
5.0
 40
5.0
 40
6.0
 40
6.0
 40
6.0
 40
7.0
 40
7.0
 40
7.0
 40
8.0
 40
8.0
 40
8.0
 40
9.0
 40
9.0
 40
9.0
 40
10.0
 40
10.0
 40
10.0
 40
11.0
 40
11.0
 40
11.0
 40
12.0
 40
12.0
 40
12.0
 40
13.0
 40
13.0
 40
13.0
 40
13.0
 10
863.4399277950196
 20
-397.611634756382
 30
0.0
 10
860.2974349746219
 20
-389.7110309498876
 30
0.0
 10
855.937656734166
 20
-383.5145186723921
 30
0.0
 10
850.3608632213399
 20
-379.02196285006
 30
0.0
 10
844.7839346346754
 20
-374.5295421015653
 30
0.0
 10
838.4546447752981
 20
-372.2943402450419
 30
0.0
 10
831.3950106786615
 20
-372.2943402450419
 30
0.0
 10
831.3950106786615
 20
-372.2943402450419
 30
0.0
 10
753.4071591978572
 20
-372.2943402450419
 30
0.0
 10
753.4071591978572
 20
-372.2943402450419
 30
0.0
 10
753.4071591978572
 20
-372.2943402450419
 30
0.0
 10
753.4071591978572
 20
-588.6862742914454
 30
0.0
 10
753.4071591978572
 20
-588.6862742914454
 30
0.0
 10
753.4071591978572
 20
-588.6862742914454
 30
0.0
 10
799.5491923982062
 20
-588.6862742914454
 30
0.0
 10
799.5491923982062
 20
-588.6862742914454
 30
0.0
 10
799.5491923982062
 20
-588.6862742914454
 30
0.0
 10
799.5491923982062
 20
-411.4873648213469
 30
0.0
 10
799.5491923982062
 20
-411.4873648213469
 30
0.0
 10
799.5491923982062
 20
-411.4873648213469
 30
0.0
 10
809.3308344603174
 20
-411.4873648213469
 30
0.0
 10
809.3308344603174
 20
-411.4873648213469
 30
0.0
 10
813.1373502639617
 20
-411.4873648213469
 30
0.0
 10
816.2135218303392
 20
-413.058678768466
 30
0.0
 10
818.537197050171
 20
-416.1790194795812
 30
0.0
 10
820.8387201607129
 20
-419.3216473738211
 30
0.0
 10
821.9895492529049
 20
-423.7477468682918
 30
0.0
 10
821.9895492529049
 20
-429.4573179630024
 30
0.0
 10
821.9895492529049
 20
-429.4573179630024
 30
0.0
 10
821.9895492529049
 20
-588.6862742914454
 30
0.0
 10
821.9895492529049
 20
-588.6862742914454
 30
0.0
 10
821.9895492529049
 20
-588.6862742914454
 30
0.0
 10
868.1315824532557
 20
-588.6862742914454
 30
0.0
 10
868.1315824532557
 20
-588.6862742914454
 30
0.0
 10
868.1315824532557
 20
-588.6862742914454
 30
0.0
 10
868.1315824532557
 20
-424.544412359577
 30
0.0
 10
868.1315824532557
 20
-424.544412359577
 30
0.0
 10
868.1315824532557
 20
-414.4972151337042
 30
0.0
 10
866.5604035799733
 20
-405.5122385628783
 30
0.0
 10
863.4399277950196
 20
-397.611634756382
 30
0.0
  0
HATCH
  5
80
330
70
100
AcDbEntity
  8
Layer 1
 62
   190
420
  9765119
440
 33554687
100
AcDbHatch
 10
0.0
 20
0.0
 30
0.0
210
0.0
220
0.0
230
1.0
  2
SOLID
 70
     1
 71
     1
 91
        1
 92
        1
 93
        1
 72
     4
 94
        3
 73
     0
 74
     0
 95
       44
 96
       40
 40
0.0
 40
0.0
 40
0.0
 40
0.0
 40
1.0
 40
1.0
 40
1.0
 40
2.0
 40
2.0
 40
2.0
 40
3.0
 40
3.0
 40
3.0
 40
4.0
 40
4.0
 40
4.0
 40
5.0
 40
5.0
 40
5.0
 40
6.0
 40
6.0
 40
6.0
 40
7.0
 40
7.0
 40
7.0
 40
8.0
 40
8.0
 40
8.0
 40
9.0
 40
9.0
 40
9.0
 40
10.0
 40
10.0
 40
10.0
 40
11.0
 40
11.0
 40
11.0
 40
12.0
 40
12.0
 40
12.0
 40
13.0
 40
13.0
 40
13.0
 40
13.0
 10
863.4399277950196
 20
-397.611634756382
 10
860.2974349746219
 20
-389.7110309498876
 10
855.937656734166
 20
-383.5145186723921
 10
850.3608632213399
 20
-379.02196285006
 10
844.7839346346754
 20
-374.5295421015653
 10
838.4546447752981
 20
-372.2943402450419
 10
831.3950106786615
 20
-372.2943402450419
 10
831.3950106786615
 20
-372.2943402450419
 10
753.4071591978572
 20
-372.2943402450419
 10
753.4071591978572
 20
-372.2943402450419
 10
753.4071591978572
 20
-372.2943402450419
 10
753.4071591978572
 20
-588.6862742914454
 10
753.4071591978572
 20
-588.6862742914454
 10
753.4071591978572
 20
-588.6862742914454
 10
799.5491923982062
 20
-588.6862742914454
 10
799.5491923982062
 20
-588.6862742914454
 10
799.5491923982062
 20
-588.6862742914454
 10
799.5491923982062
 20
-411.4873648213469
 10
799.5491923982062
 20
-411.4873648213469
 10
799.5491923982062
 20
-411.4873648213469
 10
809.3308344603174
 20
-411.4873648213469
 10
809.3308344603174
 20
-411.4873648213469
 10
813.1373502639617
 20
-411.4873648213469
 10
816.2135218303392
 20
-413.058678768466
 10
818.537197050171
 20
-416.1790194795812
 10
820.8387201607129
 20
-419.3216473738211
 10
821.9895492529049
 20
-423.7477468682918
 10
821.9895492529049
 20
-429.4573179630024
 10
821.9895492529049
 20
-429.4573179630024
 10
821.9895492529049
 20
-588.6862742914454
 10
821.9895492529049
 20
-588.6862742914454
 10
821.9895492529049
 20
-588.6862742914454
 10
868.1315824532557
 20
-588.6862742914454
 10
868.1315824532557
 20
-588.6862742914454
 10
868.1315824532557
 20
-588.6862742914454
 10
868.1315824532557
 20
-424.544412359577
 10
868.1315824532557
 20
-424.544412359577
 10
868.1315824532557
 20
-414.4972151337042
 10
866.5604035799733
 20
-405.5122385628783
 10
863.4399277950196
 20
-397.611634756382
 97
        0
 97
        1
330
7F
 75
     2
 76
     1
 98
        1
 10
0.0
 20
0.0
450
        0
451
        0
460
0.0
461
0.0
452
        0
462
0.0
453
        0
470

  0
SPLINE
  5
81
330
70
100
AcDbEntity
  8
Layer 1
100
AcDbSpline
210
0.0
220
0.0
230
1.0
 70
    11
 71
     3
 72
    89
 73
    85
 74
     0
 42
0.0000000001
 43
0.0000000001
 40
0.0
 40
0.0
 40
0.0
 40
0.0
 40
1.0
 40
1.0
 40
1.0
 40
2.0
 40
2.0
 40
2.0
 40
3.0
 40
3.0
 40
3.0
 40
4.0
 40
4.0
 40
4.0
 40
5.0
 40
5.0
 40
5.0
 40
6.0
 40
6.0
 40
6.0
 40
7.0
 40
7.0
 40
7.0
 40
8.0
 40
8.0
 40
8.0
 40
9.0
 40
9.0
 40
9.0
 40
10.0
 40
10.0
 40
10.0
 40
11.0
 40
11.0
 40
11.0
 40
12.0
 40
12.0
 40
12.0
 40
13.0
 40
13.0
 40
13.0
 40
14.0
 40
14.0
 40
14.0
 40
15.0
 40
15.0
 40
15.0
 40
16.0
 40
16.0
 40
16.0
 40
17.0
 40
17.0
 40
17.0
 40
18.0
 40
18.0
 40
18.0
 40
19.0
 40
19.0
 40
19.0
 40
20.0
 40
20.0
 40
20.0
 40
21.0
 40
21.0
 40
21.0
 40
22.0
 40
22.0
 40
22.0
 40
23.0
 40
23.0
 40
23.0
 40
24.0
 40
24.0
 40
24.0
 40
25.0
 40
25.0
 40
25.0
 40
26.0
 40
26.0
 40
26.0
 40
27.0
 40
27.0
 40
27.0
 40
28.0
 40
28.0
 40
28.0
 40
28.0
 10
871.0971285470423
 20
-198.5699350869645
 30
0.0
 10
871.0971285470423
 20
-198.5699350869645
 30
0.0
 10
871.0971285470423
 20
-123.9679794810363
 30
0.0
 10
871.0971285470423
 20
-123.9679794810363
 30
0.0
 10
871.0971285470423
 20
-113.3453677090665
 30
0.0
 10
869.8135218729694
 20
-103.7628244828584
 30
0.0
 10
867.246443598664
 20
-95.15402854838612
 30
0.0
 10
864.6792302505183
 20
-86.56751979703949
 30
0.0
 10
861.0277792118813
 20
-79.88406633675641
 30
0.0
 10
856.3361245536453
 20
-75.12595535066338
 30
0.0
 10
851.6223177861265
 20
-70.3899964738539
 30
0.0
 10
846.4215698358184
 20
-68.00000000000091
 30
0.0
 10
840.7119987411078
 20
-68.00000000000091
 30
0.0
 10
840.7119987411078
 20
-68.00000000000091
 30
0.0
 10
781.2252107294807
 20
-68.00000000000091
 30
0.0
 10
781.2252107294807
 20
-68.00000000000091
 30
0.0
 10
772.3730117405339
 20
-68.00000000000091
 30
0.0
 10
765.0919916248713
 20
-73.31123834906702
 30
0.0
 10
759.4044375656121
 20
-83.91183308558721
 30
0.0
 10
753.6948664709052
 20
-94.51229274826983
 30
0.0
 10
750.8399458497133
 20
-107.8790645949975
 30
0.0
 10
750.8399458497133
 20
-123.9679794810363
 30
0.0
 10
750.8399458497133
 20
-123.9679794810363
 30
0.0
 10
750.8399458497133
 20
-302.804524152275
 30
0.0
 10
750.8399458497133
 20
-302.804524152275
 30
0.0
 10
750.8399458497133
 20
-313.4271359242448
 30
0.0
 10
752.1235525237844
 20
-323.0318312597392
 30
0.0
 10
754.6906307980898
 20
-331.6184750849261
 30
0.0
 10
757.2578441462355
 20
-340.2051189101112
 30
0.0
 10
760.8872781494246
 20
-346.8884372965558
 30
0.0
 10
765.6010849169433
 20
-351.6465482826498
 30
0.0
 10
770.3147566106272
 20
-356.4046592687428
 30
0.0
 10
775.5155045609371
 20
-358.772638707147
 30
0.0
 10
781.2252107294807
 20
-358.772638707147
 30
0.0
 10
781.2252107294807
 20
-358.772638707147
 30
0.0
 10
840.7119987411078
 20
-358.772638707147
 30
0.0
 10
840.7119987411078
 20
-358.772638707147
 30
0.0
 10
849.5420456207721
 20
-358.772638707147
 30
0.0
 10
856.822930662598
 20
-353.4834173935296
 30
0.0
 10
862.5326368311434
 20
-342.8608056215617
 30
0.0
 10
868.2422079258504
 20
-332.2602108850424
 30
0.0
 10
871.0971285470423
 20
-318.9155911476019
 30
0.0
 10
871.0971285470423
 20
-302.804524152275
 30
0.0
 10
871.0971285470423
 20
-302.804524152275
 30
0.0
 10
871.0971285470423
 20
-229.5526315482766
 30
0.0
 10
871.0971285470423
 20
-229.5526315482766
 30
0.0
 10
871.0971285470423
 20
-229.5526315482766
 30
0.0
 10
822.7419105256176
 20
-229.5526315482766
 30
0.0
 10
822.7419105256176
 20
-229.5526315482766
 30
0.0
 10
822.7419105256176
 20
-229.5526315482766
 30
0.0
 10
822.7419105256176
 20
-281.9576333539808
 30
0.0
 10
822.7419105256176
 20
-281.9576333539808
 30
0.0
 10
822.7419105256176
 20
-289.6368511414494
 30
0.0
 10
821.7239940891449
 20
-295.5899603644702
 30
0.0
 10
819.732195287097
 20
-299.7948089137553
 30
0.0
 10
817.7405315588858
 20
-303.9996574630395
 30
0.0
 10
814.8856109376957
 20
-306.1019466638445
 30
0.0
 10
811.1898556804844
 20
-306.1019466638445
 30
0.0
 10
807.4719483139869
 20
-306.1019466638445
 30
0.0
 10
804.5507064387747
 20
-303.9996574630395
 30
0.0
 10
802.4039779455616
 20
-299.7948089137553
 30
0.0
 10
800.2573845261814
 20
-295.5899603644702
 30
0.0
 10
799.195163871138
 20
-289.6368511414494
 30
0.0
 10
799.195163871138
 20
-281.9576333539808
 30
0.0
 10
799.195163871138
 20
-281.9576333539808
 30
0.0
 10
799.195163871138
 20
-144.8148702793305
 30
0.0
 10
799.195163871138
 20
-144.8148702793305
 30
0.0
 10
799.195163871138
 20
-137.1356524918619
 30
0.0
 10
800.2573845261814
 20
-131.182543268841
 30
0.0
 10
802.4039779455616
 20
-126.9776947195569
 30
0.0
 10
804.5507064387747
 20
-122.7729812441102
 30
0.0
 10
807.4719483139869
 20
-120.6705569694659
 30
0.0
 10
811.1898556804844
 20
-120.6705569694659
 30
0.0
 10
814.8856109376957
 20
-120.6705569694659
 30
0.0
 10
817.7405315588858
 20
-122.7729812441102
 30
0.0
 10
819.732195287097
 20
-126.9776947195569
 30
0.0
 10
821.7239940891449
 20
-131.182543268841
 30
0.0
 10
822.7419105256176
 20
-137.1356524918619
 30
0.0
 10
822.7419105256176
 20
-144.8148702793305
 30
0.0
 10
822.7419105256176
 20
-144.8148702793305
 30
0.0
 10
822.7419105256176
 20
-198.5699350869645
 30
0.0
 10
822.7419105256176
 20
-198.5699350869645
 30
0.0
 10
822.7419105256176
 20
-198.5699350869645
 30
0.0
 10
871.0971285470423
 20
-198.5699350869645
 30
0.0
 10
871.0971285470423
 20
-198.5699350869645
 30
0.0
  0
HATCH
  5
82
330
70
100
AcDbEntity
  8
Layer 1
 62
   190
420
  9765119
440
 33554687
100
AcDbHatch
 10
0.0
 20
0.0
 30
0.0
210
0.0
220
0.0
230
1.0
  2
SOLID
 70
     1
 71
     1
 91
        1
 92
        1
 93
        1
 72
     4
 94
        3
 73
     0
 74
     0
 95
       89
 96
       85
 40
0.0
 40
0.0
 40
0.0
 40
0.0
 40
1.0
 40
1.0
 40
1.0
 40
2.0
 40
2.0
 40
2.0
 40
3.0
 40
3.0
 40
3.0
 40
4.0
 40
4.0
 40
4.0
 40
5.0
 40
5.0
 40
5.0
 40
6.0
 40
6.0
 40
6.0
 40
7.0
 40
7.0
 40
7.0
 40
8.0
 40
8.0
 40
8.0
 40
9.0
 40
9.0
 40
9.0
 40
10.0
 40
10.0
 40
10.0
 40
11.0
 40
11.0
 40
11.0
 40
12.0
 40
12.0
 40
12.0
 40
13.0
 40
13.0
 40
13.0
 40
14.0
 40
14.0
 40
14.0
 40
15.0
 40
15.0
 40
15.0
 40
16.0
 40
16.0
 40
16.0
 40
17.0
 40
17.0
 40
17.0
 40
18.0
 40
18.0
 40
18.0
 40
19.0
 40
19.0
 40
19.0
 40
20.0
 40
20.0
 40
20.0
 40
21.0
 40
21.0
 40
21.0
 40
22.0
 40
22.0
 40
22.0
 40
23.0
 40
23.0
 40
23.0
 40
24.0
 40
24.0
 40
24.0
 40
25.0
 40
25.0
 40
25.0
 40
26.0
 40
26.0
 40
26.0
 40
27.0
 40
27.0
 40
27.0
 40
28.0
 40
28.0
 40
28.0
 40
28.0
 10
871.0971285470423
 20
-198.5699350869645
 10
871.0971285470423
 20
-198.5699350869645
 10
871.0971285470423
 20
-123.9679794810363
 10
871.0971285470423
 20
-123.9679794810363
 10
871.0971285470423
 20
-113.3453677090665
 10
869.8135218729694
 20
-103.7628244828584
 10
867.246443598664
 20
-95.15402854838612
 10
864.6792302505183
 20
-86.56751979703949
 10
861.0277792118813
 20
-79.88406633675641
 10
856.3361245536453
 20
-75.12595535066338
 10
851.6223177861265
 20
-70.3899964738539
 10
846.4215698358184
 20
-68.00000000000091
 10
840.7119987411078
 20
-68.00000000000091
 10
840.7119987411078
 20
-68.00000000000091
 10
781.2252107294807
 20
-68.00000000000091
 10
781.2252107294807
 20
-68.00000000000091
 10
772.3730117405339
 20
-68.00000000000091
 10
765.0919916248713
 20
-73.31123834906702
 10
759.4044375656121
 20
-83.91183308558721
 10
753.6948664709052
 20
-94.51229274826983
 10
750.8399458497133
 20
-107.8790645949975
 10
750.8399458497133
 20
-123.9679794810363
 10
750.8399458497133
 20
-123.9679794810363
 10
750.8399458497133
 20
-302.804524152275
 10
750.8399458497133
 20
-302.804524152275
 10
750.8399458497133
 20
-313.4271359242448
 10
752.1235525237844
 20
-323.0318312597392
 10
754.6906307980898
 20
-331.6184750849261
 10
757.2578441462355
 20
-340.2051189101112
 10
760.8872781494246
 20
-346.8884372965558
 10
765.6010849169433
 20
-351.6465482826498
 10
770.3147566106272
 20
-356.4046592687428
 10
775.5155045609371
 20
-358.772638707147
 10
781.2252107294807
 20
-358.772638707147
 10
781.2252107294807
 20
-358.772638707147
 10
840.7119987411078
 20
-358.772638707147
 10
840.7119987411078
 20
-358.772638707147
 10
849.5420456207721
 20
-358.772638707147
 10
856.822930662598
 20
-353.4834173935296
 10
862.5326368311434
 20
-342.8608056215617
 10
868.2422079258504
 20
-332.2602108850424
 10
871.0971285470423
 20
-318.9155911476019
 10
871.0971285470423
 20
-302.804524152275
 10
871.0971285470423
 20
-302.804524152275
 10
871.0971285470423
 20
-229.5526315482766
 10
871.0971285470423
 20
-229.5526315482766
 10
871.0971285470423
 20
-229.5526315482766
 10
822.7419105256176
 20
-229.5526315482766
 10
822.7419105256176
 20
-229.5526315482766
 10
822.7419105256176
 20
-229.5526315482766
 10
822.7419105256176
 20
-281.9576333539808
 10
822.7419105256176
 20
-281.9576333539808
 10
822.7419105256176
 20
-289.6368511414494
 10
821.7239940891449
 20
-295.5899603644702
 10
819.732195287097
 20
-299.7948089137553
 10
817.7405315588858
 20
-303.9996574630395
 10
814.8856109376957
 20
-306.1019466638445
 10
811.1898556804844
 20
-306.1019466638445
 10
807.4719483139869
 20
-306.1019466638445
 10
804.5507064387747
 20
-303.9996574630395
 10
802.4039779455616
 20
-299.7948089137553
 10
800.2573845261814
 20
-295.5899603644702
 10
799.195163871138
 20
-289.6368511414494
 10
799.195163871138
 20
-281.9576333539808
 10
799.195163871138
 20
-281.9576333539808
 10
799.195163871138
 20
-144.8148702793305
 10
799.195163871138
 20
-144.8148702793305
 10
799.195163871138
 20
-137.1356524918619
 10
800.2573845261814
 20
-131.182543268841
 10
802.4039779455616
 20
-126.9776947195569
 10
804.5507064387747
 20
-122.7729812441102
 10
807.4719483139869
 20
-120.6705569694659
 10
811.1898556804844
 20
-120.6705569694659
 10
814.8856109376957
 20
-120.6705569694659
 10
817.7405315588858
 20
-122.7729812441102
 10
819.732195287097
 20
-126.9776947195569
 10
821.7239940891449
 20
-131.182543268841
 10
822.7419105256176
 20
-137.1356524918619
 10
822.7419105256176
 20
-144.8148702793305
 10
822.7419105256176
 20
-144.8148702793305
 10
822.7419105256176
 20
-198.5699350869645
 10
822.7419105256176
 20
-198.5699350869645
 10
822.7419105256176
 20
-198.5699350869645
 10
871.0971285470423
 20
-198.5699350869645
 10
871.0971285470423
 20
-198.5699350869645
 97
        0
 97
        1
330
81
 75
     2
 76
     1
 98
        1
 10
0.0
 20
0.0
450
        0
451
        0
460
0.0
461
0.0
452
        0
462
0.0
453
        0
470

  0
SPLINE
  5
83
330
70
100
AcDbEntity
  8
Layer 1
100
AcDbSpline
210
0.0
220
0.0
230
1.0
 70
    11
 71
     3
 72
    20
 73
    16
 74
     0
 42
0.0000000001
 43
0.0000000001
 40
0.0
 40
0.0
 40
0.0
 40
0.0
 40
1.0
 40
1.0
 40
1.0
 40
2.0
 40
2.0
 40
2.0
 40
3.0
 40
3.0
 40
3.0
 40
4.0
 40
4.0
 40
4.0
 40
5.0
 40
5.0
 40
5.0
 40
5.0
 10
528.6889736678076
 20
-68.67687000597562
 30
0.0
 10
528.6889736678076
 20
-68.67687000597562
 30
0.0
 10
520.7282482346673
 20
-68.67687000597562
 30
0.0
 10
520.7282482346673
 20
-68.67687000597562
 30
0.0
 10
479.9686012101092
 20
-68.67687000597562
 30
0.0
 10
446.9263787514883
 20
-101.7190925458571
 30
0.0
 10
446.9263787514883
 20
-142.4787394891555
 30
0.0
 10
446.9263787514883
 20
-142.4787394891555
 30
0.0
 10
446.9263787514883
 20
-142.4788132910999
 30
0.0
 10
446.9263787514883
 20
-142.4788132910999
 30
0.0
 10
446.9263787514883
 20
-142.4788132910999
 30
0.0
 10
528.6889736678076
 20
-142.4788132910999
 30
0.0
 10
528.6889736678076
 20
-142.4788132910999
 30
0.0
 10
528.6889736678076
 20
-142.4788132910999
 30
0.0
 10
528.6889736678076
 20
-68.67687000597562
 30
0.0
 10
528.6889736678076
 20
-68.67687000597562
 30
0.0
  0
HATCH
  5
84
330
70
100
AcDbEntity
  8
Layer 1
 62
   190
420
  9765119
440
 33554687
100
AcDbHatch
 10
0.0
 20
0.0
 30
0.0
210
0.0
220
0.0
230
1.0
  2
SOLID
 70
     1
 71
     1
 91
        1
 92
        1
 93
        1
 72
     4
 94
        3
 73
     0
 74
     0
 95
       20
 96
       16
 40
0.0
 40
0.0
 40
0.0
 40
0.0
 40
1.0
 40
1.0
 40
1.0
 40
2.0
 40
2.0
 40
2.0
 40
3.0
 40
3.0
 40
3.0
 40
4.0
 40
4.0
 40
4.0
 40
5.0
 40
5.0
 40
5.0
 40
5.0
 10
528.6889736678076
 20
-68.67687000597562
 10
528.6889736678076
 20
-68.67687000597562
 10
520.7282482346673
 20
-68.67687000597562
 10
520.7282482346673
 20
-68.67687000597562
 10
479.9686012101092
 20
-68.67687000597562
 10
446.9263787514883
 20
-101.7190925458571
 10
446.9263787514883
 20
-142.4787394891555
 10
446.9263787514883
 20
-142.4787394891555
 10
446.9263787514883
 20
-142.4788132910999
 10
446.9263787514883
 20
-142.4788132910999
 10
446.9263787514883
 20
-142.4788132910999
 10
528.6889736678076
 20
-142.4788132910999
 10
528.6889736678076
 20
-142.4788132910999
 10
528.6889736678076
 20
-142.4788132910999
 10
528.6889736678076
 20
-68.67687000597562
 10
528.6889736678076
 20
-68.67687000597562
 97
        0
 97
        1
330
83
 75
     2
 76
     1
 98
        1
 10
0.0
 20
0.0
450
        0
451
        0
460
0.0
461
0.0
452
        0
462
0.0
453
        0
470

  0
SPLINE
  5
85
330
70
100
AcDbEntity
  8
Layer 1
100
AcDbSpline
210
0.0
220
0.0
230
1.0
 70
     9
 71
     3
 72
    35
 73
    31
 74
     0
 42
0.0000000001
 43
0.0000000001
 40
0.0
 40
0.0
 40
0.0
 40
0.0
 40
1.0
 40
1.0
 40
1.0
 40
2.0
 40
2.0
 40
2.0
 40
3.0
 40
3.0
 40
3.0
 40
4.0
 40
4.0
 40
4.0
 40
5.0
 40
5.0
 40
5.0
 40
6.0
 40
6.0
 40
6.0
 40
7.0
 40
7.0
 40
7.0
 40
8.0
 40
8.0
 40
8.0
 40
9.0
 40
9.0
 40
9.0
 40
10.0
 40
10.0
 40
10.0
 40
10.0
 10
700.9578531735805
 20
-141.0527937680972
 30
0.0
 10
698.0809155169408
 20
-143.3321647693556
 30
0.0
 10
693.9866924402486
 20
-144.4829938615467
 30
0.0
 10
688.6976062004706
 20
-144.4829938615467
 30
0.0
 10
688.6976062004706
 20
-144.4829938615467
 30
0.0
 10
594.2445241234326
 20
-144.4829938615467
 30
0.0
 10
594.2445241234326
 20
-144.4829938615467
 30
0.0
 10
588.9554378836537
 20
-144.4829938615467
 30
0.0
 10
584.8612148069642
 20
-143.3321647693556
 30
0.0
 10
581.9621250410364
 20
-141.0527937680972
 30
0.0
 10
579.0630352751113
 20
-138.7954398022884
 30
0.0
 10
577.6024818744235
 20
-135.6749640173366
 30
0.0
 10
577.6024818744235
 20
-131.7358057056499
 30
0.0
 10
577.6024818744235
 20
-127.7965123201274
 30
0.0
 10
579.0630352751113
 20
-124.7426279368701
 30
0.0
 10
581.9621250410364
 20
-122.6180515529431
 30
0.0
 10
584.8612148069642
 20
-120.5156272783006
 30
0.0
 10
588.9554378836537
 20
-119.4312545139682
 30
0.0
 10
594.2445241234326
 20
-119.4312545139682
 30
0.0
 10
594.2445241234326
 20
-119.4312545139682
 30
0.0
 10
688.6976062004706
 20
-119.4312545139682
 30
0.0
 10
688.6976062004706
 20
-119.4312545139682
 30
0.0
 10
693.9866924402486
 20
-119.4312545139682
 30
0.0
 10
698.0809155169408
 20
-120.5156272783006
 30
0.0
 10
700.9578531735805
 20
-122.6180515529431
 30
0.0
 10
703.8569429395066
 20
-124.7426279368701
 30
0.0
 10
705.3174963401962
 20
-127.7965123201274
 30
0.0
 10
705.3174963401962
 20
-131.7358057056499
 30
0.0
 10
705.3174963401962
 20
-135.6749640173366
 30
0.0
 10
703.8569429395066
 20
-138.7954398022884
 30
0.0
 10
700.9578531735805
 20
-141.0527937680972
 30
0.0
  0
SPLINE
  5
86
330
70
100
AcDbEntity
  8
Layer 1
100
AcDbSpline
210
0.0
220
0.0
230
1.0
 70
     9
 71
     3
 72
    47
 73
    43
 74
     0
 42
0.0000000001
 43
0.0000000001
 40
0.0
 40
0.0
 40
0.0
 40
0.0
 40
1.0
 40
1.0
 40
1.0
 40
2.0
 40
2.0
 40
2.0
 40
3.0
 40
3.0
 40
3.0
 40
4.0
 40
4.0
 40
4.0
 40
5.0
 40
5.0
 40
5.0
 40
6.0
 40
6.0
 40
6.0
 40
7.0
 40
7.0
 40
7.0
 40
8.0
 40
8.0
 40
8.0
 40
9.0
 40
9.0
 40
9.0
 40
10.0
 40
10.0
 40
10.0
 40
11.0
 40
11.0
 40
11.0
 40
12.0
 40
12.0
 40
12.0
 40
13.0
 40
13.0
 40
13.0
 40
14.0
 40
14.0
 40
14.0
 40
14.0
 10
730.6347908515345
 20
-77.09560204342233
 30
0.0
 10
723.3317537004222
 20
-71.03186734780866
 30
0.0
 10
714.1255261844053
 20
-68.00000000000091
 30
0.0
 10
703.038125338935
 20
-68.00000000000091
 30
0.0
 10
703.038125338935
 20
-68.00000000000091
 30
0.0
 10
579.881852875681
 20
-68.00000000000091
 30
0.0
 10
579.881852875681
 20
-68.00000000000091
 30
0.0
 10
572.5788157245679
 20
-68.00000000000091
 30
0.0
 10
565.9618185921444
 20
-69.37208003738215
 30
0.0
 10
560.0530135876979
 20
-72.09408800285564
 30
0.0
 10
554.1220564739623
 20
-74.81609596832732
 30
0.0
 10
549.5188751790364
 20
-78.6889330259919
 30
0.0
 10
546.2434697029175
 20
-83.71259917584666
 30
0.0
 10
542.9903514099205
 20
-88.71411321641607
 30
0.0
 10
541.3305640994922
 20
-94.24673758450808
 30
0.0
 10
541.3305640994922
 20
-100.3104722801235
 30
0.0
 10
541.3305640994922
 20
-100.3104722801235
 30
0.0
 10
541.3305640994922
 20
-163.6037760953932
 30
0.0
 10
541.3305640994922
 20
-163.6037760953932
 30
0.0
 10
541.3305640994922
 20
-173.0092375211488
 30
0.0
 10
545.004167247418
 20
-180.7549116364762
 30
0.0
 10
552.3073394723696
 20
-186.8186463320917
 30
0.0
 10
559.6103766234818
 20
-192.8823810277063
 30
0.0
 10
568.7944520302107
 20
-195.914248375514
 30
0.0
 10
579.881852875681
 20
-195.914248375514
 30
0.0
 10
579.881852875681
 20
-195.914248375514
 30
0.0
 10
703.038125338935
 20
-195.914248375514
 30
0.0
 10
703.038125338935
 20
-195.914248375514
 30
0.0
 10
710.3633145993371
 20
-195.914248375514
 30
0.0
 10
716.9581596224743
 20
-194.5421683381328
 30
0.0
 10
722.8891167362071
 20
-191.8201603726593
 30
0.0
 10
728.7980568144921
 20
-189.0980173333501
 30
0.0
 10
733.4011030355814
 20
-185.2251802756855
 30
0.0
 10
736.6765085117021
 20
-180.2236662351161
 30
0.0
 10
739.9517789139827
 20
-175.2001351590988
 30
0.0
 10
741.5894141151256
 20
-169.6675107910068
 30
0.0
 10
741.5894141151256
 20
-163.6037760953932
 30
0.0
 10
741.5894141151256
 20
-163.6037760953932
 30
0.0
 10
741.5894141151256
 20
-100.3104722801235
 30
0.0
 10
741.5894141151256
 20
-100.3104722801235
 30
0.0
 10
741.5894141151256
 20
-90.92716296365324
 30
0.0
 10
737.9379630764852
 20
-83.18148884832499
 30
0.0
 10
730.6347908515345
 20
-77.09560204342233
 30
0.0
  0
HATCH
  5
87
330
70
100
AcDbEntity
  8
Layer 1
 62
   190
420
  9765119
440
 33554687
100
AcDbHatch
 10
0.0
 20
0.0
 30
0.0
210
0.0
220
0.0
230
1.0
  2
SOLID
 70
     1
 71
     1
 91
        2
 92
        1
 93
        1
 72
     4
 94
        3
 73
     0
 74
     0
 95
       35
 96
       31
 40
0.0
 40
0.0
 40
0.0
 40
0.0
 40
1.0
 40
1.0
 40
1.0
 40
2.0
 40
2.0
 40
2.0
 40
3.0
 40
3.0
 40
3.0
 40
4.0
 40
4.0
 40
4.0
 40
5.0
 40
5.0
 40
5.0
 40
6.0
 40
6.0
 40
6.0
 40
7.0
 40
7.0
 40
7.0
 40
8.0
 40
8.0
 40
8.0
 40
9.0
 40
9.0
 40
9.0
 40
10.0
 40
10.0
 40
10.0
 40
10.0
 10
700.9578531735805
 20
-141.0527937680972
 10
698.0809155169408
 20
-143.3321647693556
 10
693.9866924402486
 20
-144.4829938615467
 10
688.6976062004706
 20
-144.4829938615467
 10
688.6976062004706
 20
-144.4829938615467
 10
594.2445241234326
 20
-144.4829938615467
 10
594.2445241234326
 20
-144.4829938615467
 10
588.9554378836537
 20
-144.4829938615467
 10
584.8612148069642
 20
-143.3321647693556
 10
581.9621250410364
 20
-141.0527937680972
 10
579.0630352751113
 20
-138.7954398022884
 10
577.6024818744235
 20
-135.6749640173366
 10
577.6024818744235
 20
-131.7358057056499
 10
577.6024818744235
 20
-127.7965123201274
 10
579.0630352751113
 20
-124.7426279368701
 10
581.9621250410364
 20
-122.6180515529431
 10
584.8612148069642
 20
-120.5156272783006
 10
588.9554378836537
 20
-119.4312545139682
 10
594.2445241234326
 20
-119.4312545139682
 10
594.2445241234326
 20
-119.4312545139682
 10
688.6976062004706
 20
-119.4312545139682
 10
688.6976062004706
 20
-119.4312545139682
 10
693.9866924402486
 20
-119.4312545139682
 10
698.0809155169408
 20
-120.5156272783006
 10
700.9578531735805
 20
-122.6180515529431
 10
703.8569429395066
 20
-124.7426279368701
 10
705.3174963401962
 20
-127.7965123201274
 10
705.3174963401962
 20
-131.7358057056499
 10
705.3174963401962
 20
-135.6749640173366
 10
703.8569429395066
 20
-138.7954398022884
 10
700.9578531735805
 20
-141.0527937680972
 97
        0
 97
        1
330
85
 92
        1
 93
        1
 72
     4
 94
        3
 73
     0
 74
     0
 95
       47
 96
       43
 40
0.0
 40
0.0
 40
0.0
 40
0.0
 40
1.0
 40
1.0
 40
1.0
 40
2.0
 40
2.0
 40
2.0
 40
3.0
 40
3.0
 40
3.0
 40
4.0
 40
4.0
 40
4.0
 40
5.0
 40
5.0
 40
5.0
 40
6.0
 40
6.0
 40
6.0
 40
7.0
 40
7.0
 40
7.0
 40
8.0
 40
8.0
 40
8.0
 40
9.0
 40
9.0
 40
9.0
 40
10.0
 40
10.0
 40
10.0
 40
11.0
 40
11.0
 40
11.0
 40
12.0
 40
12.0
 40
12.0
 40
13.0
 40
13.0
 40
13.0
 40
14.0
 40
14.0
 40
14.0
 40
14.0
 10
730.6347908515345
 20
-77.09560204342233
 10
723.3317537004222
 20
-71.03186734780866
 10
714.1255261844053
 20
-68.00000000000091
 10
703.038125338935
 20
-68.00000000000091
 10
703.038125338935
 20
-68.00000000000091
 10
579.881852875681
 20
-68.00000000000091
 10
579.881852875681
 20
-68.00000000000091
 10
572.5788157245679
 20
-68.00000000000091
 10
565.9618185921444
 20
-69.37208003738215
 10
560.0530135876979
 20
-72.09408800285564
 10
554.1220564739623
 20
-74.81609596832732
 10
549.5188751790364
 20
-78.6889330259919
 10
546.2434697029175
 20
-83.71259917584666
 10
542.9903514099205
 20
-88.71411321641607
 10
541.3305640994922
 20
-94.24673758450808
 10
541.3305640994922
 20
-100.3104722801235
 10
541.3305640994922
 20
-100.3104722801235
 10
541.3305640994922
 20
-163.6037760953932
 10
541.3305640994922
 20
-163.6037760953932
 10
541.3305640994922
 20
-173.0092375211488
 10
545.004167247418
 20
-180.7549116364762
 10
552.3073394723696
 20
-186.8186463320917
 10
559.6103766234818
 20
-192.8823810277063
 10
568.7944520302107
 20
-195.914248375514
 10
579.881852875681
 20
-195.914248375514
 10
579.881852875681
 20
-195.914248375514
 10
703.038125338935
 20
-195.914248375514
 10
703.038125338935
 20
-195.914248375514
 10
710.3633145993371
 20
-195.914248375514
 10
716.9581596224743
 20
-194.5421683381328
 10
722.8891167362071
 20
-191.8201603726593
 10
728.7980568144921
 20
-189.0980173333501
 10
733.4011030355814
 20
-185.2251802756855
 10
736.6765085117021
 20
-180.2236662351161
 10
739.9517789139827
 20
-175.2001351590988
 10
741.5894141151256
 20
-169.6675107910068
 10
741.5894141151256
 20
-163.6037760953932
 10
741.5894141151256
 20
-163.6037760953932
 10
741.5894141151256
 20
-100.3104722801235
 10
741.5894141151256
 20
-100.3104722801235
 10
741.5894141151256
 20
-90.92716296365324
 10
737.9379630764852
 20
-83.18148884832499
 10
730.6347908515345
 20
-77.09560204342233
 97
        0
 97
        1
330
86
 75
     2
 76
     1
 98
        1
 10
0.0
 20
0.0
450
        0
451
        0
460
0.0
461
0.0
452
        0
462
0.0
453
        0
470

  0
SPLINE
  5
88
330
70
100
AcDbEntity
  8
Layer 1
100
AcDbSpline
210
0.0
220
0.0
230
1.0
 70
    11
 71
     3
 72
    20
 73
    16
 74
     0
 42
0.0000000001
 43
0.0000000001
 40
0.0
 40
0.0
 40
0.0
 40
0.0
 40
1.0
 40
1.0
 40
1.0
 40
2.0
 40
2.0
 40
2.0
 40
3.0
 40
3.0
 40
3.0
 40
4.0
 40
4.0
 40
4.0
 40
5.0
 40
5.0
 40
5.0
 40
5.0
 10
959.0
 20
-588.6814266415149
 30
0.0
 10
959.0
 20
-588.6814266415149
 30
0.0
 10
877.8548426013186
 20
-588.6814266415149
 30
0.0
 10
877.8548426013186
 20
-588.6814266415149
 30
0.0
 10
877.8548426013186
 20
-588.6814266415149
 30
0.0
 10
877.8548426013186
 20
-68.0
 30
0.0
 10
877.8548426013186
 20
-68.0
 30
0.0
 10
877.8548426013186
 20
-68.0
 30
0.0
 10
947.0000120000005
 20
-68.00000000000455
 30
0.0
 10
947.0000120000005
 20
-68.00000000000455
 30
0.0
 10
953.6274223705531
 20
-68.00000000000546
 30
0.0
 10
959.0
 20
-73.37257762945228
 30
0.0
 10
959.0
 20
-79.99998800000503
 30
0.0
 10
959.0
 20
-79.99998800000503
 30
0.0
 10
959.0
 20
-588.6814266415149
 30
0.0
 10
959.0
 20
-588.6814266415149
 30
0.0
  0
HATCH
  5
89
330
70
100
AcDbEntity
  8
Layer 1
 62
   190
420
  9765119
440
 33554687
100
AcDbHatch
 10
0.0
 20
0.0
 30
0.0
210
0.0
220
0.0
230
1.0
  2
SOLID
 70
     1
 71
     1
 91
        1
 92
        1
 93
        1
 72
     4
 94
        3
 73
     0
 74
     0
 95
       20
 96
       16
 40
0.0
 40
0.0
 40
0.0
 40
0.0
 40
1.0
 40
1.0
 40
1.0
 40
2.0
 40
2.0
 40
2.0
 40
3.0
 40
3.0
 40
3.0
 40
4.0
 40
4.0
 40
4.0
 40
5.0
 40
5.0
 40
5.0
 40
5.0
 10
959.0
 20
-588.6814266415149
 10
959.0
 20
-588.6814266415149
 10
877.8548426013186
 20
-588.6814266415149
 10
877.8548426013186
 20
-588.6814266415149
 10
877.8548426013186
 20
-588.6814266415149
 10
877.8548426013186
 20
-68.0
 10
877.8548426013186
 20
-68.0
 10
877.8548426013186
 20
-68.0
 10
947.0000120000005
 20
-68.00000000000455
 10
947.0000120000005
 20
-68.00000000000455
 10
953.6274223705531
 20
-68.00000000000546
 10
959.0
 20
-73.37257762945228
 10
959.0
 20
-79.99998800000503
 10
959.0
 20
-79.99998800000503
 10
959.0
 20
-588.6814266415149
 10
959.0
 20
-588.6814266415149
 97
        0
 97
        1
330
88
 75
     2
 76
     1
 98
        1
 10
0.0
 20
0.0
450
        0
451
        0
460
0.0
461
0.0
452
        0
462
0.0
453
        0
470

  0
MTEXT
  5
8A
330
70
100
AcDbEntity
  8
Layer 1
100
AcDbMText
 10
895.9995117187499
 20
-392.490234375
 30
0.0
 40
0.2
 41
0.0
 46
0.0
 71
     7
 72
     1
  1
\C18;\c0;\FPoppins ExtraBold|b1|i0|c1;\H35.561992;\W1.000000;LANCIDO
 73
     1
 44
1.0
  0
ENDSEC
  0
SECTION
  2
OBJECTS
  0
DICTIONARY
  5
C
330
0
100
AcDbDictionary
281
     1
  3
ACAD_COLOR
350
63
  3
ACAD_DETAILVIEWSTYLE
350
6A
  3
ACAD_GROUP
350
D
  3
ACAD_LAYOUT
350
62
  3
ACAD_MATERIAL
350
10
  3
ACAD_MLEADERSTYLE
350
66
  3
ACAD_MLINESTYLE
350
5F
  3
ACAD_PLOTSETTINGS
350
61
  3
ACAD_PLOTSTYLENAME
350
E
  3
ACAD_SCALELIST
350
42
  3
ACAD_SECTIONVIEWSTYLE
350
68
  3
ACAD_TABLESTYLE
350
64
  3
ACAD_VISUALSTYLE
350
29
  3
ACDB_RECOMPOSE_DATA
350
93
  3
AcDbVariableDictionary
350
8B
  0
DICTIONARY
  5
63
102
{ACAD_REACTORS
330
C
102
}
330
C
100
AcDbDictionary
281
     1
  0
DICTIONARY
  5
6A
102
{ACAD_REACTORS
330
C
102
}
330
C
100
AcDbDictionary
281
     1
  3
Imperial24
350
6B
  0
DICTIONARY
  5
D
102
{ACAD_REACTORS
330
C
102
}
330
C
100
AcDbDictionary
281
     1
  0
DICTIONARY
  5
62
102
{ACAD_REACTORS
330
C
102
}
330
C
100
AcDbDictionary
281
     1
  3
Layout1
350
6F
  3
Layout2
350
77
  3
Model
350
73
  0
DICTIONARY
  5
10
102
{ACAD_REACTORS
330
C
102
}
330
C
100
AcDbDictionary
281
     1
  3
ByBlock
350
19
  3
ByLayer
350
11
  3
Global
350
21
  0
DICTIONARY
  5
66
102
{ACAD_REACTORS
330
C
102
}
330
C
100
AcDbDictionary
281
     1
  3
Standard
350
67
  0
DICTIONARY
  5
5F
102
{ACAD_REACTORS
330
C
102
}
330
C
100
AcDbDictionary
281
     1
  3
Standard
350
60
  0
DICTIONARY
  5
61
102
{ACAD_REACTORS
330
C
102
}
330
C
100
AcDbDictionary
281
     1
  0
ACDBDICTIONARYWDFLT
  5
E
102
{ACAD_REACTORS
330
C
102
}
330
C
100
AcDbDictionary
281
     1
  3
Normal
350
F
100
AcDbDictionaryWithDefault
340
F
  0
DICTIONARY
  5
42
102
{ACAD_REACTORS
330
C
102
}
330
C
100
AcDbDictionary
281
     1
  3
A0
350
43
  3
A1
350
44
  3
A2
350
45
  3
A3
350
46
  3
A4
350
47
  3
A5
350
48
  3
A6
350
49
  3
A7
350
4A
  3
A8
350
4B
  3
A9
350
4C
  3
B0
350
4D
  3
B1
350
4E
  3
B2
350
4F
  3
B3
350
50
  3
B4
350
51
  3
B5
350
52
  3
B6
350
53
  0
DICTIONARY
  5
68
102
{ACAD_REACTORS
330
C
102
}
330
C
100
AcDbDictionary
281
     1
  3
Imperial24
350
69
  0
DICTIONARY
  5
64
102
{ACAD_REACTORS
330
C
102
}
330
C
100
AcDbDictionary
281
     1
  3
Standard
350
65
  0
DICTIONARY
  5
29
102
{ACAD_REACTORS
330
C
102
}
330
C
100
AcDbDictionary
281
     1
  3
2dWireframe
350
2F
  3
Basic
350
2E
  3
Brighten
350
35
  3
ColorChange
350
39
  3
Conceptual
350
32
  3
Dim
350
34
  3
EdgeColorOff
350
41
  3
Facepattern
350
38
  3
Flat
350
2A
  3
FlatWithEdges
350
2B
  3
Gouraud
350
2C
  3
GouraudWithEdges
350
2D
  3
Hidden
350
31
  3
JitterOff
350
3F
  3
Linepattern
350
37
  3
OverhangOff
350
40
  3
Realistic
350
33
  3
Shaded
350
3E
  3
Shaded with edges
350
3D
  3
Shades of Gray
350
3A
  3
Sketchy
350
3B
  3
Thicken
350
36
  3
Wireframe
350
30
  3
X-Ray
350
3C
  0
XRECORD
  5
93
102
{ACAD_REACTORS
330
C
102
}
330
C
100
AcDbXrecord
280
     1
 90
        1
330
65
  0
DICTIONARY
  5
8B
102
{ACAD_REACTORS
330
C
102
}
330
C
100
AcDbDictionary
281
     1
  3
CANNOSCALE
350
90
  3
CMLEADERSTYLE
350
8D
  3
CTABLESTYLE
350
8C
  3
CVIEWDETAILSTYLE
350
8E
  3
CVIEWSECTIONSTYLE
350
8F
  0
ACDBDETAILVIEWSTYLE
  5
6B
102
{ACAD_REACTORS
330
6A
102
}
330
6A
100
AcDbModelDocViewStyle
 70
     0
  3
Imperial24
290
     1
300
Imperial24
 90
        0
100
AcDbDetailViewStyle
 70
     0
 71
     0
 90
        3
 71
     1
340
55
 62
   256
 40
0.24
340
0
 62
   256
 40
0.24
300

 40
0.36
280
     3
 71
     2
340
5D
 90
       25
 62
   256
 71
     3
340
55
 62
   256
 40
0.24
 90
        1
 40
0.75
 90
        1
300
%<\AcVar ViewType \f "%tc1">% %<\AcVar ViewDetailId>%\PSCALE %<\AcVar ViewScale \f "%sn">%
 71
     4
340
5D
 90
       25
 62
   256
340
5D
 90
       25
 62
   256
280
     0
  0
LAYOUT
  5
6F
102
{ACAD_REACTORS
330
62
102
}
330
62
100
AcDbPlotSettings
  1

  2

  4

  6

 40
0.0
 41
0.0
 42
0.0
 43
0.0
 44
0.0
 45
0.0
 46
0.0
 47
0.0
 48
0.0
 49
0.0
140
0.0
141
0.0
142
1.0
143
1.0
 70
   688
 72
     0
 73
     0
 74
     5
  7

 75
    16
147
1.0
 76
     0
 77
     2
 78
   300
148
0.0
149
0.0
100
AcDbLayout
  1
Layout1
 70
     1
 71
     1
 10
0.0
 20
0.0
 11
12.0
 21
9.0
 12
0.0
 22
0.0
 32
0.0
 14
0.0
 24
0.0
 34
0.0
 15
0.0
 25
0.0
 35
0.0
146
0.0
 13
0.0
 23
0.0
 33
0.0
 16
1.0
 26
0.0
 36
0.0
 17
0.0
 27
1.0
 37
0.0
 76
     0
330
6C
  0
LAYOUT
  5
77
102
{ACAD_REACTORS
330
62
102
}
330
62
100
AcDbPlotSettings
  1

  2

  4

  6

 40
0.0
 41
0.0
 42
0.0
 43
0.0
 44
0.0
 45
0.0
 46
0.0
 47
0.0
 48
0.0
 49
0.0
140
0.0
141
0.0
142
1.0
143
1.0
 70
   688
 72
     0
 73
     0
 74
     5
  7

 75
    16
147
1.0
 76
     0
 77
     2
 78
   300
148
0.0
149
0.0
100
AcDbLayout
  1
Layout2
 70
     1
 71
     2
 10
0.0
 20
0.0
 11
12.0
 21
9.0
 12
0.0
 22
0.0
 32
0.0
 14
0.0
 24
0.0
 34
0.0
 15
0.0
 25
0.0
 35
0.0
146
0.0
 13
0.0
 23
0.0
 33
0.0
 16
1.0
 26
0.0
 36
0.0
 17
0.0
 27
1.0
 37
0.0
 76
     0
330
74
  0
LAYOUT
  5
73
102
{ACAD_REACTORS
330
62
102
}
330
62
100
AcDbPlotSettings
  1

  2

  4

  6

 40
0.0
 41
0.0
 42
0.0
 43
0.0
 44
0.0
 45
0.0
 46
0.0
 47
0.0
 48
0.0
 49
0.0
140
0.0
141
0.0
142
1.0
143
1.0
 70
  1712
 72
     0
 73
     0
 74
     0
  7

 75
     0
147
1.0
 76
     0
 77
     2
 78
   300
148
0.0
149
0.0
100
AcDbLayout
  1
Model
 70
     1
 71
     0
 10
0.0
 20
0.0
 11
12.0
 21
9.0
 12
0.0
 22
0.0
 32
0.0
 14
0.0
 24
0.0
 34
0.0
 15
0.0
 25
0.0
 35
0.0
146
0.0
 13
0.0
 23
0.0
 33
0.0
 16
1.0
 26
0.0
 36
0.0
 17
0.0
 27
1.0
 37
0.0
 76
     0
330
70
  0
MATERIAL
  5
19
102
{ACAD_XDICTIONARY
360
1A
102
}
102
{ACAD_REACTORS
330
10
102
}
330
10
100
AcDbMaterial
  1
ByBlock
 72
     0
 43
0.0208333333333333
 43
0.0
 43
0.0
 43
0.0
 43
0.0
 43
0.0208333333333333
 43
0.0
 43
0.0
 43
0.0
 43
0.0
 43
1.0
 43
0.0
 43
0.0
 43
0.0
 43
0.0
 43
1.0
 77
     0
 47
0.0208333333333333
 47
0.0
 47
0.0
 47
0.0
 47
0.0
 47
0.0208333333333333
 47
0.0
 47
0.0
 47
0.0
 47
0.0
 47
1.0
 47
0.0
 47
0.0
 47
0.0
 47
0.0
 47
1.0
171
     0
 49
0.0208333333333333
 49
0.0
 49
0.0
 49
0.0
 49
0.0
 49
0.0208333333333333
 49
0.0
 49
0.0
 49
0.0
 49
0.0
 49
1.0
 49
0.0
 49
0.0
 49
0.0
 49
0.0
 49
1.0
175
     0
142
0.0208333333333333
142
0.0
142
0.0
142
0.0
142
0.0
142
0.0208333333333333
142
0.0
142
0.0
142
0.0
142
0.0
142
1.0
142
0.0
142
0.0
142
0.0
142
0.0
142
1.0
179
     0
144
0.0208333333333333
144
0.0
144
0.0
144
0.0
144
0.0
144
0.0208333333333333
144
0.0
144
0.0
144
0.0
144
0.0
144
1.0
144
0.0
144
0.0
144
0.0
144
0.0
144
1.0
147
0.0208333333333333
147
0.0
147
0.0
147
0.0
147
0.0
147
0.0208333333333333
147
0.0
147
0.0
147
0.0
147
0.0
147
1.0
147
0.0
147
0.0
147
0.0
147
0.0
147
1.0
  0
MATERIAL
  5
11
102
{ACAD_XDICTIONARY
360
12
102
}
102
{ACAD_REACTORS
330
10
102
}
330
10
100
AcDbMaterial
  1
ByLayer
 72
     0
 43
0.0208333333333333
 43
0.0
 43
0.0
 43
0.0
 43
0.0
 43
0.0208333333333333
 43
0.0
 43
0.0
 43
0.0
 43
0.0
 43
1.0
 43
0.0
 43
0.0
 43
0.0
 43
0.0
 43
1.0
 77
     0
 47
0.0208333333333333
 47
0.0
 47
0.0
 47
0.0
 47
0.0
 47
0.0208333333333333
 47
0.0
 47
0.0
 47
0.0
 47
0.0
 47
1.0
 47
0.0
 47
0.0
 47
0.0
 47
0.0
 47
1.0
171
     0
 49
0.0208333333333333
 49
0.0
 49
0.0
 49
0.0
 49
0.0
 49
0.0208333333333333
 49
0.0
 49
0.0
 49
0.0
 49
0.0
 49
1.0
 49
0.0
 49
0.0
 49
0.0
 49
0.0
 49
1.0
175
     0
142
0.0208333333333333
142
0.0
142
0.0
142
0.0
142
0.0
142
0.0208333333333333
142
0.0
142
0.0
142
0.0
142
0.0
142
1.0
142
0.0
142
0.0
142
0.0
142
0.0
142
1.0
179
     0
144
0.0208333333333333
144
0.0
144
0.0
144
0.0
144
0.0
144
0.0208333333333333
144
0.0
144
0.0
144
0.0
144
0.0
144
1.0
144
0.0
144
0.0
144
0.0
144
0.0
144
1.0
147
0.0208333333333333
147
0.0
147
0.0
147
0.0
147
0.0
147
0.0208333333333333
147
0.0
147
0.0
147
0.0
147
0.0
147
1.0
147
0.0
147
0.0
147
0.0
147
0.0
147
1.0
  0
MATERIAL
  5
21
102
{ACAD_XDICTIONARY
360
22
102
}
102
{ACAD_REACTORS
330
10
102
}
330
10
100
AcDbMaterial
  1
Global
 72
     0
 43
0.0208333333333333
 43
0.0
 43
0.0
 43
0.0
 43
0.0
 43
0.0208333333333333
 43
0.0
 43
0.0
 43
0.0
 43
0.0
 43
1.0
 43
0.0
 43
0.0
 43
0.0
 43
0.0
 43
1.0
 77
     0
 47
0.0208333333333333
 47
0.0
 47
0.0
 47
0.0
 47
0.0
 47
0.0208333333333333
 47
0.0
 47
0.0
 47
0.0
 47
0.0
 47
1.0
 47
0.0
 47
0.0
 47
0.0
 47
0.0
 47
1.0
171
     0
 49
0.0208333333333333
 49
0.0
 49
0.0
 49
0.0
 49
0.0
 49
0.0208333333333333
 49
0.0
 49
0.0
 49
0.0
 49
0.0
 49
1.0
 49
0.0
 49
0.0
 49
0.0
 49
0.0
 49
1.0
175
     0
142
0.0208333333333333
142
0.0
142
0.0
142
0.0
142
0.0
142
0.0208333333333333
142
0.0
142
0.0
142
0.0
142
0.0
142
1.0
142
0.0
142
0.0
142
0.0
142
0.0
142
1.0
179
     0
144
0.0208333333333333
144
0.0
144
0.0
144
0.0
144
0.0
144
0.0208333333333333
144
0.0
144
0.0
144
0.0
144
0.0
144
1.0
144
0.0
144
0.0
144
0.0
144
0.0
144
1.0
147
0.0208333333333333
147
0.0
147
0.0
147
0.0
147
0.0
147
0.0208333333333333
147
0.0
147
0.0
147
0.0
147
0.0
147
1.0
147
0.0
147
0.0
147
0.0
147
0.0
147
1.0
  0
MLEADERSTYLE
  5
67
102
{ACAD_REACTORS
330
66
102
}
330
66
100
AcDbMLeaderStyle
179
     2
170
     2
171
     1
172
     0
 90
        2
 40
0.0
 41
0.0
173
     1
 91
-1056964608
340
5B
 92
       -2
290
     1
 42
0.09
291
     1
 43
0.36
  3
Standard
 44
0.18
300

342
55
174
     1
178
     6
175
     1
176
     0
 93
-1056964608
 45
0.18
292
     0
297
     0
 46
0.18
 94
-1056964608
 47
1.0
 49
1.0
140
1.0
293
     1
141
0.0
294
     1
177
     0
142
1.0
295
     1
296
     0
143
0.125
271
     0
272
     9
273
     9
298
     1
  0
MLINESTYLE
  5
60
102
{ACAD_REACTORS
330
5F
102
}
330
5F
100
AcDbMlineStyle
  2
STANDARD
 70
     0
  3

 62
   256
 51
90.0
 52
90.0
 71
     2
 49
0.5
 62
   256
  6
BYLAYER
 49
-0.5
 62
   256
  6
BYLAYER
  0
ACDBPLACEHOLDER
  5
F
102
{ACAD_REACTORS
330
E
102
}
330
E
  0
SCALE
  5
43
102
{ACAD_REACTORS
330
42
102
}
330
42
100
AcDbScale
 70
     0
300
1:1
140
1.0
141
1.0
290
     1
  0
SCALE
  5
44
102
{ACAD_REACTORS
330
42
102
}
330
42
100
AcDbScale
 70
     0
300
1/128" = 1'-0"
140
0.0078125
141
12.0
290
     0
  0
SCALE
  5
45
102
{ACAD_REACTORS
330
42
102
}
330
42
100
AcDbScale
 70
     0
300
1/64" = 1'-0"
140
0.015625
141
12.0
290
     0
  0
SCALE
  5
46
102
{ACAD_REACTORS
330
42
102
}
330
42
100
AcDbScale
 70
     0
300
1/32" = 1'-0"
140
0.03125
141
12.0
290
     0
  0
SCALE
  5
47
102
{ACAD_REACTORS
330
42
102
}
330
42
100
AcDbScale
 70
     0
300
1/16" = 1'-0"
140
0.0625
141
12.0
290
     0
  0
SCALE
  5
48
102
{ACAD_REACTORS
330
42
102
}
330
42
100
AcDbScale
 70
     0
300
3/32" = 1'-0"
140
0.09375
141
12.0
290
     0
  0
SCALE
  5
49
102
{ACAD_REACTORS
330
42
102
}
330
42
100
AcDbScale
 70
     0
300
1/8" = 1'-0"
140
0.125
141
12.0
290
     0
  0
SCALE
  5
4A
102
{ACAD_REACTORS
330
42
102
}
330
42
100
AcDbScale
 70
     0
300
3/16" = 1'-0"
140
0.1875
141
12.0
290
     0
  0
SCALE
  5
4B
102
{ACAD_REACTORS
330
42
102
}
330
42
100
AcDbScale
 70
     0
300
1/4" = 1'-0"
140
0.25
141
12.0
290
     0
  0
SCALE
  5
4C
102
{ACAD_REACTORS
330
42
102
}
330
42
100
AcDbScale
 70
     0
300
3/8" = 1'-0"
140
0.375
141
12.0
290
     0
  0
SCALE
  5
4D
102
{ACAD_REACTORS
330
42
102
}
330
42
100
AcDbScale
 70
     0
300
1/2" = 1'-0"
140
0.5
141
12.0
290
     0
  0
SCALE
  5
4E
102
{ACAD_REACTORS
330
42
102
}
330
42
100
AcDbScale
 70
     0
300
3/4" = 1'-0"
140
0.75
141
12.0
290
     0
  0
SCALE
  5
4F
102
{ACAD_REACTORS
330
42
102
}
330
42
100
AcDbScale
 70
     0
300
1" = 1'-0"
140
1.0
141
12.0
290
     0
  0
SCALE
  5
50
102
{ACAD_REACTORS
330
42
102
}
330
42
100
AcDbScale
 70
     0
300
1-1/2" = 1'-0"
140
1.5
141
12.0
290
     0
  0
SCALE
  5
51
102
{ACAD_REACTORS
330
42
102
}
330
42
100
AcDbScale
 70
     0
300
3" = 1'-0"
140
3.0
141
12.0
290
     0
  0
SCALE
  5
52
102
{ACAD_REACTORS
330
42
102
}
330
42
100
AcDbScale
 70
     0
300
6" = 1'-0"
140
6.0
141
12.0
290
     0
  0
SCALE
  5
53
102
{ACAD_REACTORS
330
42
102
}
330
42
100
AcDbScale
 70
     0
300
1'-0" = 1'-0"
140
12.0
141
12.0
290
     0
  0
ACDBSECTIONVIEWSTYLE
  5
69
102
{ACAD_REACTORS
330
68
102
}
330
68
100
AcDbModelDocViewStyle
 70
     0
  3
Imperial24
290
     1
300
Imperial24
 90
        0
100
AcDbSectionViewStyle
 70
     0
 71
     0
 90
       78
 71
     1
340
55
 62
   256
 40
0.24
340
0
340
0
 62
   256
 40
0.24
300
I, O, Q, S, X, Z
 40
0.48
 90
        3
 40
0.18
 90
        1
 71
     2
340
5D
 90
       25
 62
   256
340
5D
 90
       50
 62
   256
 40
0.24
 40
0.0
 40
0.24
 71
     3
340
55
 62
   256
 40
0.24
 90
        1
 40
0.75
 90
        1
300
%<\AcVar ViewType \f "%tc1">% %<\AcVar ViewSectionStartId>%-%<\AcVar ViewSectionEndId>%\PSCALE %<\AcVar ViewScale \f "%sn">%
 71
     4
 62
   256
 62
   257
300
ANSI31
 40
1.0
 90
        0
290
     0
290
     0
 90
        6
 40
0.0
 40
1.570796326794896
 40
0.2617993877991494
 40
1.308996938995747
 40
-0.2617993877991494
 40
1.832595714594046
  0
TABLESTYLE
  5
65
102
{ACAD_XDICTIONARY
360
91
102
}
102
{ACAD_REACTORS
330
64
102
}
330
64
100
AcDbTableStyle
280
     0
  3
Standard
 70
     0
 71
     0
 40
0.06
 41
0.06
280
     0
281
     0
  7
Standard
140
0.18
170
     2
 62
     0
 63
     7
283
     0
 90
      512
 91
        0
  1

274
    -2
284
     1
 64
     0
275
    -2
285
     1
 65
     0
276
    -2
286
     1
 66
     0
277
    -2
287
     1
 67
     0
278
    -2
288
     1
 68
     0
279
    -2
289
     1
 69
     0
  7
Standard
140
0.25
170
     5
 62
     0
 63
     7
283
     0
 90
      512
 91
        0
  1

274
    -2
284
     1
 64
     0
275
    -2
285
     1
 65
     0
276
    -2
286
     1
 66
     0
277
    -2
287
     1
 67
     0
278
    -2
288
     1
 68
     0
279
    -2
289
     1
 69
     0
  7
Standard
140
0.18
170
     5
 62
     0
 63
     7
283
     0
 90
      512
 91
        0
  1

274
    -2
284
     1
 64
     0
275
    -2
285
     1
 65
     0
276
    -2
286
     1
 66
     0
277
    -2
287
     1
 67
     0
278
    -2
288
     1
 68
     0
279
    -2
289
     1
 69
     0
  0
VISUALSTYLE
  5
2F
102
{ACAD_REACTORS
330
29
102
}
330
29
100
AcDbVisualStyle
  2
2dWireframe
 70
     4
177
     3
291
     0
 70
    58
 90
        0
176
     1
 90
        2
176
     1
 90
        0
176
     1
 90
        0
176
     1
 40
0.6
176
     1
 40
30.0
176
     1
 62
     7
420
 16777215
176
     1
 90
        1
176
     1
 90
        4
176
     1
 62
     7
176
     1
 62
   257
176
     1
 90
        1
176
     1
 90
        1
176
     1
 40
1.0
176
     1
 90
        0
176
     1
 62
   257
176
     1
 40
1.0
176
     1
 90
        1
176
     1
 90
        6
176
     1
 90
        2
176
     1
 62
     7
176
     1
 90
        5
176
     1
 90
        0
176
     1
 90
        0
176
     1
290
     0
176
     1
 90
        1
176
     1
 40
0.0
176
     1
 90
        0
176
     1
290
     1
176
     1
290
     1
176
     1
290
     0
176
     1
290
     0
176
     1
290
     0
176
     1
290
     0
176
     1
290
     0
176
     1
290
     0
176
     1
290
     0
176
     1
 90
       50
176
     1
 40
0.0
176
     1
 40
1.0
176
     1
 90
        0
176
     1
 62
    18
420
        0
176
     1
 90
       50
176
     1
 90
        3
176
     1
 62
     5
420
      255
176
     1
290
     0
176
     1
 90
       50
176
     1
 90
       50
176
     1
 90
       50
176
     1
290
     0
176
     1
 90
       50
176
     1
 62
   256
176
     0
 40
1.0
176
     0
 90
        2
176
     1
  1
strokes_ogs.tif
176
     1
290
     0
176
     1
 40
1.0
176
     1
 40
1.0
176
     1
  0
VISUALSTYLE
  5
2E
102
{ACAD_REACTORS
330
29
102
}
330
29
100
AcDbVisualStyle
  2
Basic
 70
     7
177
     3
291
     1
 70
    58
 90
        1
176
     1
 90
        0
176
     1
 90
        1
176
     1
 90
        0
176
     1
 40
0.6
176
     1
 40
30.0
176
     1
 62
     7
420
 16777215
176
     1
 90
        0
176
     1
 90
        4
176
     1
 62
     7
176
     1
 62
   257
176
     1
 90
        1
176
     1
 90
        1
176
     1
 40
1.0
176
     1
 90
        8
176
     1
 62
     7
176
     1
 40
1.0
176
     1
 90
        1
176
     1
 90
        6
176
     1
 90
        2
176
     1
 62
     7
176
     1
 90
        5
176
     1
 90
        0
176
     1
 90
        0
176
     1
290
     0
176
     1
 90
        1
176
     1
 40
0.0
176
     1
 90
        0
176
     1
290
     0
176
     1
290
     1
176
     1
290
     1
176
     1
290
     0
176
     1
290
     0
176
     1
290
     0
176
     1
290
     0
176
     1
290
     0
176
     1
290
     0
176
     1
 90
       50
176
     1
 40
0.0
176
     1
 40
1.0
176
     1
 90
        0
176
     1
 62
    18
420
        0
176
     1
 90
       50
176
     1
 90
        3
176
     1
 62
     5
420
      255
176
     1
290
     0
176
     1
 90
       50
176
     1
 90
       50
176
     1
 90
       50
176
     1
290
     0
176
     1
 90
       50
176
     1
 62
   256
176
     0
 40
1.0
176
     0
 90
        2
176
     1
  1
strokes_ogs.tif
176
     1
290
     0
176
     1
 40
1.0
176
     1
 40
1.0
176
     1
  0
VISUALSTYLE
  5
35
102
{ACAD_REACTORS
330
29
102
}
330
29
100
AcDbVisualStyle
  2
Brighten
 70
    12
177
     3
291
     1
 70
    58
 90
        2
176
     1
 90
        2
176
     1
 90
        0
176
     1
 90
        0
176
     1
 40
0.6
176
     1
 40
30.0
176
     1
 62
     7
420
 16777215
176
     1
 90
        1
176
     1
 90
        4
176
     1
 62
     7
176
     1
 62
   257
176
     1
 90
        1
176
     1
 90
        1
176
     1
 40
1.0
176
     1
 90
        8
176
     1
 62
     7
176
     1
 40
1.0
176
     1
 90
        1
176
     1
 90
        6
176
     1
 90
        2
176
     1
 62
     7
176
     1
 90
        5
176
     1
 90
        0
176
     1
 90
        0
176
     1
290
     0
176
     1
 90
        1
176
     1
 40
50.0
176
     1
 90
        0
176
     1
290
     0
176
     1
290
     1
176
     1
290
     1
176
     1
290
     0
176
     1
290
     0
176
     1
290
     0
176
     1
290
     0
176
     1
290
     0
176
     1
290
     0
176
     1
 90
       50
176
     1
 40
0.0
176
     1
 40
1.0
176
     1
 90
        0
176
     1
 62
    18
420
        0
176
     1
 90
       50
176
     1
 90
        3
176
     1
 62
     5
420
      255
176
     1
290
     0
176
     1
 90
       50
176
     1
 90
       50
176
     1
 90
       50
176
     1
290
     0
176
     1
 90
       50
176
     1
 62
   256
176
     0
 40
1.0
176
     0
 90
        2
176
     1
  1
strokes_ogs.tif
176
     1
290
     0
176
     1
 40
1.0
176
     1
 40
1.0
176
     1
  0
VISUALSTYLE
  5
39
102
{ACAD_REACTORS
330
29
102
}
330
29
100
AcDbVisualStyle
  2
ColorChange
 70
    16
177
     3
291
     1
 70
    58
 90
        2
176
     1
 90
        2
176
     1
 90
        3
176
     1
 90
        0
176
     1
 40
0.6
176
     1
 40
30.0
176
     1
 62
     8
420
  8421504
176
     1
 90
        1
176
     1
 90
        4
176
     1
 62
     7
176
     1
 62
   257
176
     1
 90
        1
176
     1
 90
        1
176
     1
 40
1.0
176
     1
 90
        8
176
     1
 62
     8
420
  8421504
176
     1
 40
1.0
176
     1
 90
        1
176
     1
 90
        6
176
     1
 90
        2
176
     1
 62
     7
176
     1
 90
        5
176
     1
 90
        0
176
     1
 90
        0
176
     1
290
     0
176
     1
 90
        1
176
     1
 40
0.0
176
     1
 90
        0
176
     1
290
     0
176
     1
290
     1
176
     1
290
     1
176
     1
290
     0
176
     1
290
     0
176
     1
290
     0
176
     1
290
     0
176
     1
290
     0
176
     1
290
     0
176
     1
 90
       50
176
     1
 40
0.0
176
     1
 40
1.0
176
     1
 90
        0
176
     1
 62
    18
420
        0
176
     1
 90
       50
176
     1
 90
        3
176
     1
 62
     5
420
      255
176
     1
290
     0
176
     1
 90
       50
176
     1
 90
       50
176
     1
 90
       50
176
     1
290
     0
176
     1
 90
       50
176
     1
 62
   256
176
     0
 40
1.0
176
     0
 90
        2
176
     1
  1
strokes_ogs.tif
176
     1
290
     0
176
     1
 40
1.0
176
     1
 40
1.0
176
     1
  0
VISUALSTYLE
  5
32
102
{ACAD_REACTORS
330
29
102
}
330
29
100
AcDbVisualStyle
  2
Conceptual
 70
     9
177
     3
291
     0
 70
    58
 90
        3
176
     1
 90
        2
176
     1
 90
        0
176
     1
 90
        0
176
     1
 40
0.6
176
     1
 40
30.0
176
     1
 62
     7
420
 16777215
176
     1
 90
        2
176
     1
 90
        2
176
     1
 62
     7
176
     1
 62
   257
176
     1
 90
        1
176
     1
 90
        1
176
     1
 40
179.0
176
     1
 90
        8
176
     1
 62
     7
176
     1
 40
1.0
176
     1
 90
        1
176
     1
 90
        6
176
     1
 90
        2
176
     1
 62
     7
176
     1
 90
        3
176
     1
 90
        0
176
     1
 90
        0
176
     1
290
     0
176
     1
 90
        1
176
     1
 40
0.0
176
     1
 90
        0
176
     1
290
     0
176
     1
290
     1
176
     1
290
     1
176
     1
290
     0
176
     1
290
     0
176
     1
290
     0
176
     1
290
     0
176
     1
290
     0
176
     1
290
     0
176
     1
 90
       50
176
     1
 40
0.0
176
     1
 40
1.0
176
     1
 90
        0
176
     1
 62
    18
420
        0
176
     1
 90
       50
176
     1
 90
        3
176
     1
 62
     5
420
      255
176
     1
290
     0
176
     1
 90
       50
176
     1
 90
       50
176
     1
 90
       50
176
     1
290
     0
176
     1
 90
       50
176
     1
 62
   256
176
     0
 40
1.0
176
     0
 90
        2
176
     1
  1
strokes_ogs.tif
176
     1
290
     0
176
     1
 40
1.0
176
     1
 40
1.0
176
     1
  0
VISUALSTYLE
  5
34
102
{ACAD_REACTORS
330
29
102
}
330
29
100
AcDbVisualStyle
  2
Dim
 70
    11
177
     3
291
     1
 70
    58
 90
        2
176
     1
 90
        2
176
     1
 90
        0
176
     1
 90
        0
176
     1
 40
0.6
176
     1
 40
30.0
176
     1
 62
     7
420
 16777215
176
     1
 90
        1
176
     1
 90
        4
176
     1
 62
     7
176
     1
 62
   257
176
     1
 90
        1
176
     1
 90
        1
176
     1
 40
1.0
176
     1
 90
        8
176
     1
 62
     7
176
     1
 40
1.0
176
     1
 90
        1
176
     1
 90
        6
176
     1
 90
        2
176
     1
 62
     7
176
     1
 90
        5
176
     1
 90
        0
176
     1
 90
        0
176
     1
290
     0
176
     1
 90
        1
176
     1
 40
-50.0
176
     1
 90
        0
176
     1
290
     0
176
     1
290
     1
176
     1
290
     1
176
     1
290
     0
176
     1
290
     0
176
     1
290
     0
176
     1
290
     0
176
     1
290
     0
176
     1
290
     0
176
     1
 90
       50
176
     1
 40
0.0
176
     1
 40
1.0
176
     1
 90
        0
176
     1
 62
    18
420
        0
176
     1
 90
       50
176
     1
 90
        3
176
     1
 62
     5
420
      255
176
     1
290
     0
176
     1
 90
       50
176
     1
 90
       50
176
     1
 90
       50
176
     1
290
     0
176
     1
 90
       50
176
     1
 62
   256
176
     0
 40
1.0
176
     0
 90
        2
176
     1
  1
strokes_ogs.tif
176
     1
290
     0
176
     1
 40
1.0
176
     1
 40
1.0
176
     1
  0
VISUALSTYLE
  5
41
102
{ACAD_REACTORS
330
29
102
}
330
29
100
AcDbVisualStyle
  2
EdgeColorOff
 70
    22
177
     3
291
     1
 70
    58
 90
        2
176
     0
 90
        2
176
     0
 90
        0
176
     0
 90
        0
176
     0
 40
0.6
176
     0
 40
30.0
176
     0
 62
     7
420
 16777215
176
     0
 90
        1
176
     0
 90
        4
176
     0
 62
     7
176
     0
 62
   257
176
     0
 90
        1
176
     0
 90
        1
176
     0
 40
1.0
176
     0
 90
        8
176
     2
 62
     7
176
     0
 40
1.0
176
     0
 90
        1
176
     0
 90
        6
176
     0
 90
        2
176
     0
 62
     7
176
     0
 90
        5
176
     0
 90
        0
176
     0
 90
        0
176
     0
290
     0
176
     0
 90
        1
176
     0
 40
0.0
176
     0
 90
        0
176
     0
290
     0
176
     0
290
     1
176
     0
290
     1
176
     0
290
     0
176
     0
290
     0
176
     0
290
     0
176
     0
290
     0
176
     0
290
     0
176
     0
290
     0
176
     0
 90
       50
176
     0
 40
0.0
176
     0
 40
1.0
176
     0
 90
        0
176
     0
 62
    18
420
        0
176
     0
 90
       50
176
     0
 90
        3
176
     0
 62
     5
420
      255
176
     0
290
     0
176
     0
 90
       50
176
     0
 90
       50
176
     0
 90
       50
176
     0
290
     0
176
     0
 90
       50
176
     0
 62
   256
176
     0
 40
1.0
176
     0
 90
        2
176
     0
  1
strokes_ogs.tif
176
     0
290
     0
176
     0
 40
1.0
176
     0
 40
1.0
176
     0
  0
VISUALSTYLE
  5
38
102
{ACAD_REACTORS
330
29
102
}
330
29
100
AcDbVisualStyle
  2
Facepattern
 70
    15
177
     3
291
     1
 70
    58
 90
        2
176
     1
 90
        2
176
     1
 90
        0
176
     1
 90
        0
176
     1
 40
0.6
176
     1
 40
30.0
176
     1
 62
     7
420
 16777215
176
     1
 90
        1
176
     1
 90
        4
176
     1
 62
     7
176
     1
 62
   257
176
     1
 90
        1
176
     1
 90
        1
176
     1
 40
1.0
176
     1
 90
        8
176
     1
 62
     7
176
     1
 40
1.0
176
     1
 90
        1
176
     1
 90
        6
176
     1
 90
        2
176
     1
 62
     7
176
     1
 90
        5
176
     1
 90
        0
176
     1
 90
        0
176
     1
290
     0
176
     1
 90
        1
176
     1
 40
0.0
176
     1
 90
        0
176
     1
290
     0
176
     1
290
     1
176
     1
290
     1
176
     1
290
     0
176
     1
290
     0
176
     1
290
     0
176
     1
290
     0
176
     1
290
     0
176
     1
290
     0
176
     1
 90
       50
176
     1
 40
0.0
176
     1
 40
1.0
176
     1
 90
        0
176
     1
 62
    18
420
        0
176
     1
 90
       50
176
     1
 90
        3
176
     1
 62
     5
420
      255
176
     1
290
     0
176
     1
 90
       50
176
     1
 90
       50
176
     1
 90
       50
176
     1
290
     0
176
     1
 90
       50
176
     1
 62
   256
176
     0
 40
1.0
176
     0
 90
        2
176
     1
  1
strokes_ogs.tif
176
     1
290
     0
176
     1
 40
1.0
176
     1
 40
1.0
176
     1
  0
VISUALSTYLE
  5
2A
102
{ACAD_REACTORS
330
29
102
}
330
29
100
AcDbVisualStyle
  2
Flat
 70
     0
177
     3
291
     1
 70
    58
 90
        2
176
     1
 90
        1
176
     1
 90
        1
176
     1
 90
        2
176
     1
 40
0.6
176
     1
 40
30.0
176
     1
 62
     7
420
 16777215
176
     1
 90
        0
176
     1
 90
        0
176
     1
 62
     7
176
     1
 62
   257
176
     1
 90
        1
176
     1
 90
        1
176
     1
 40
1.0
176
     1
 90
        8
176
     1
 62
     7
176
     1
 40
1.0
176
     1
 90
        1
176
     1
 90
        6
176
     1
 90
        2
176
     1
 62
     7
176
     1
 90
        5
176
     1
 90
        0
176
     1
 90
        0
176
     1
290
     0
176
     1
 90
       13
176
     1
 40
0.0
176
     1
 90
        0
176
     1
290
     0
176
     1
290
     1
176
     1
290
     1
176
     1
290
     0
176
     1
290
     0
176
     1
290
     0
176
     1
290
     0
176
     1
290
     0
176
     1
290
     0
176
     1
 90
       50
176
     1
 40
0.0
176
     1
 40
1.0
176
     1
 90
        0
176
     1
 62
    18
420
        0
176
     1
 90
       50
176
     1
 90
        3
176
     1
 62
     5
420
      255
176
     1
290
     0
176
     1
 90
       50
176
     1
 90
       50
176
     1
 90
       50
176
     1
290
     0
176
     1
 90
       50
176
     1
 62
   256
176
     0
 40
1.0
176
     0
 90
        2
176
     1
  1
strokes_ogs.tif
176
     1
290
     0
176
     1
 40
1.0
176
     1
 40
1.0
176
     1
  0
VISUALSTYLE
  5
2B
102
{ACAD_REACTORS
330
29
102
}
330
29
100
AcDbVisualStyle
  2
FlatWithEdges
 70
     1
177
     3
291
     1
 70
    58
 90
        2
176
     1
 90
        1
176
     1
 90
        1
176
     1
 90
        2
176
     1
 40
0.6
176
     1
 40
30.0
176
     1
 62
     7
420
 16777215
176
     1
 90
        1
176
     1
 90
        0
176
     1
 62
     7
176
     1
 62
   257
176
     1
 90
        1
176
     1
 90
        1
176
     1
 40
1.0
176
     1
 90
        0
176
     1
 62
   257
176
     1
 40
1.0
176
     1
 90
        1
176
     1
 90
        6
176
     1
 90
        2
176
     1
 62
     7
176
     1
 90
        5
176
     1
 90
        0
176
     1
 90
        0
176
     1
290
     0
176
     1
 90
       13
176
     1
 40
0.0
176
     1
 90
        0
176
     1
290
     0
176
     1
290
     1
176
     1
290
     1
176
     1
290
     0
176
     1
290
     0
176
     1
290
     0
176
     1
290
     0
176
     1
290
     0
176
     1
290
     0
176
     1
 90
       50
176
     1
 40
0.0
176
     1
 40
1.0
176
     1
 90
        0
176
     1
 62
    18
420
        0
176
     1
 90
       50
176
     1
 90
        3
176
     1
 62
     5
420
      255
176
     1
290
     0
176
     1
 90
       50
176
     1
 90
       50
176
     1
 90
       50
176
     1
290
     0
176
     1
 90
       50
176
     1
 62
   256
176
     0
 40
1.0
176
     0
 90
        2
176
     1
  1
strokes_ogs.tif
176
     1
290
     0
176
     1
 40
1.0
176
     1
 40
1.0
176
     1
  0
VISUALSTYLE
  5
2C
102
{ACAD_REACTORS
330
29
102
}
330
29
100
AcDbVisualStyle
  2
Gouraud
 70
     2
177
     3
291
     1
 70
    58
 90
        2
176
     1
 90
        2
176
     1
 90
        1
176
     1
 90
        2
176
     1
 40
0.6
176
     1
 40
30.0
176
     1
 62
     7
420
 16777215
176
     1
 90
        0
176
     1
 90
        0
176
     1
 62
     7
176
     1
 62
   257
176
     1
 90
        1
176
     1
 90
        1
176
     1
 40
1.0
176
     1
 90
        0
176
     1
 62
     7
176
     1
 40
1.0
176
     1
 90
        1
176
     1
 90
        6
176
     1
 90
        2
176
     1
 62
     7
176
     1
 90
        5
176
     1
 90
        0
176
     1
 90
        0
176
     1
290
     0
176
     1
 90
       13
176
     1
 40
0.0
176
     1
 90
        0
176
     1
290
     0
176
     1
290
     1
176
     1
290
     1
176
     1
290
     0
176
     1
290
     0
176
     1
290
     0
176
     1
290
     0
176
     1
290
     0
176
     1
290
     0
176
     1
 90
       50
176
     1
 40
0.0
176
     1
 40
1.0
176
     1
 90
        0
176
     1
 62
    18
420
        0
176
     1
 90
       50
176
     1
 90
        3
176
     1
 62
     5
420
      255
176
     1
290
     0
176
     1
 90
       50
176
     1
 90
       50
176
     1
 90
       50
176
     1
290
     0
176
     1
 90
       50
176
     1
 62
   256
176
     0
 40
1.0
176
     0
 90
        2
176
     1
  1
strokes_ogs.tif
176
     1
290
     0
176
     1
 40
1.0
176
     1
 40
1.0
176
     1
  0
VISUALSTYLE
  5
2D
102
{ACAD_REACTORS
330
29
102
}
330
29
100
AcDbVisualStyle
  2
GouraudWithEdges
 70
     3
177
     3
291
     1
 70
    58
 90
        2
176
     1
 90
        2
176
     1
 90
        1
176
     1
 90
        2
176
     1
 40
0.6
176
     1
 40
30.0
176
     1
 62
     7
420
 16777215
176
     1
 90
        1
176
     1
 90
        0
176
     1
 62
     7
176
     1
 62
   257
176
     1
 90
        1
176
     1
 90
        1
176
     1
 40
1.0
176
     1
 90
        0
176
     1
 62
   257
176
     1
 40
1.0
176
     1
 90
        1
176
     1
 90
        6
176
     1
 90
        2
176
     1
 62
     7
176
     1
 90
        5
176
     1
 90
        0
176
     1
 90
        0
176
     1
290
     0
176
     1
 90
       13
176
     1
 40
0.0
176
     1
 90
        0
176
     1
290
     0
176
     1
290
     1
176
     1
290
     1
176
     1
290
     0
176
     1
290
     0
176
     1
290
     0
176
     1
290
     0
176
     1
290
     0
176
     1
290
     0
176
     1
 90
       50
176
     1
 40
0.0
176
     1
 40
1.0
176
     1
 90
        0
176
     1
 62
    18
420
        0
176
     1
 90
       50
176
     1
 90
        3
176
     1
 62
     5
420
      255
176
     1
290
     0
176
     1
 90
       50
176
     1
 90
       50
176
     1
 90
       50
176
     1
290
     0
176
     1
 90
       50
176
     1
 62
   256
176
     0
 40
1.0
176
     0
 90
        2
176
     1
  1
strokes_ogs.tif
176
     1
290
     0
176
     1
 40
1.0
176
     1
 40
1.0
176
     1
  0
VISUALSTYLE
  5
31
102
{ACAD_REACTORS
330
29
102
}
330
29
100
AcDbVisualStyle
  2
Hidden
 70
     6
177
     3
291
     0
 70
    58
 90
        1
176
     1
 90
        2
176
     1
 90
        2
176
     1
 90
        0
176
     1
 40
0.6
176
     1
 40
30.0
176
     1
 62
     7
420
 16777215
176
     1
 90
        2
176
     1
 90
        2
176
     1
 62
     7
176
     1
 62
   257
176
     1
 90
        2
176
     1
 90
        1
176
     1
 40
40.0
176
     1
 90
        0
176
     1
 62
   257
176
     1
 40
1.0
176
     1
 90
        1
176
     1
 90
        6
176
     1
 90
        2
176
     1
 62
     7
176
     1
 90
        3
176
     1
 90
        0
176
     1
 90
        0
176
     1
290
     0
176
     1
 90
        1
176
     1
 40
0.0
176
     1
 90
        0
176
     1
290
     0
176
     1
290
     1
176
     1
290
     1
176
     1
290
     0
176
     1
290
     0
176
     1
290
     0
176
     1
290
     0
176
     1
290
     0
176
     1
290
     0
176
     1
 90
       50
176
     1
 40
0.0
176
     1
 40
1.0
176
     1
 90
        0
176
     1
 62
    18
420
        0
176
     1
 90
       50
176
     1
 90
        3
176
     1
 62
     5
420
      255
176
     1
290
     0
176
     1
 90
       50
176
     1
 90
       50
176
     1
 90
       50
176
     1
290
     0
176
     1
 90
       50
176
     1
 62
   256
176
     0
 40
1.0
176
     0
 90
        2
176
     1
  1
strokes_ogs.tif
176
     1
290
     0
176
     1
 40
1.0
176
     1
 40
1.0
176
     1
  0
VISUALSTYLE
  5
3F
102
{ACAD_REACTORS
330
29
102
}
330
29
100
AcDbVisualStyle
  2
JitterOff
 70
    20
177
     3
291
     1
 70
    58
 90
        2
176
     0
 90
        2
176
     0
 90
        0
176
     0
 90
        0
176
     0
 40
0.6
176
     0
 40
30.0
176
     0
 62
     7
420
 16777215
176
     0
 90
        1
176
     0
 90
        4
176
     0
 62
     7
176
     0
 62
   257
176
     0
 90
        1
176
     0
 90
        1
176
     0
 40
1.0
176
     0
 90
       10
176
     2
 62
     7
176
     0
 40
1.0
176
     0
 90
        1
176
     0
 90
        6
176
     0
 90
        2
176
     0
 62
     7
176
     0
 90
        5
176
     0
 90
        0
176
     0
 90
        0
176
     0
290
     0
176
     0
 90
        1
176
     0
 40
0.0
176
     0
 90
        0
176
     0
290
     0
176
     0
290
     1
176
     0
290
     1
176
     0
290
     0
176
     0
290
     0
176
     0
290
     0
176
     0
290
     0
176
     0
290
     0
176
     0
290
     0
176
     0
 90
       50
176
     0
 40
0.0
176
     0
 40
1.0
176
     0
 90
        0
176
     0
 62
    18
420
        0
176
     0
 90
       50
176
     0
 90
        3
176
     0
 62
     5
420
      255
176
     0
290
     0
176
     0
 90
       50
176
     0
 90
       50
176
     0
 90
       50
176
     0
290
     0
176
     0
 90
       50
176
     0
 62
   256
176
     0
 40
1.0
176
     0
 90
        2
176
     0
  1
strokes_ogs.tif
176
     0
290
     0
176
     0
 40
1.0
176
     0
 40
1.0
176
     0
  0
VISUALSTYLE
  5
37
102
{ACAD_REACTORS
330
29
102
}
330
29
100
AcDbVisualStyle
  2
Linepattern
 70
    14
177
     3
291
     1
 70
    58
 90
        2
176
     1
 90
        2
176
     1
 90
        0
176
     1
 90
        0
176
     1
 40
0.6
176
     1
 40
30.0
176
     1
 62
     7
420
 16777215
176
     1
 90
        1
176
     1
 90
        4
176
     1
 62
     7
176
     1
 62
   257
176
     1
 90
        7
176
     1
 90
        7
176
     1
 40
1.0
176
     1
 90
        8
176
     1
 62
     7
176
     1
 40
1.0
176
     1
 90
        1
176
     1
 90
        6
176
     1
 90
        2
176
     1
 62
     7
176
     1
 90
        5
176
     1
 90
        0
176
     1
 90
        0
176
     1
290
     0
176
     1
 90
        1
176
     1
 40
0.0
176
     1
 90
        0
176
     1
290
     0
176
     1
290
     1
176
     1
290
     1
176
     1
290
     0
176
     1
290
     0
176
     1
290
     0
176
     1
290
     0
176
     1
290
     0
176
     1
290
     0
176
     1
 90
       50
176
     1
 40
0.0
176
     1
 40
1.0
176
     1
 90
        0
176
     1
 62
    18
420
        0
176
     1
 90
       50
176
     1
 90
        3
176
     1
 62
     5
420
      255
176
     1
290
     0
176
     1
 90
       50
176
     1
 90
       50
176
     1
 90
       50
176
     1
290
     0
176
     1
 90
       50
176
     1
 62
   256
176
     0
 40
1.0
176
     0
 90
        2
176
     1
  1
strokes_ogs.tif
176
     1
290
     0
176
     1
 40
1.0
176
     1
 40
1.0
176
     1
  0
VISUALSTYLE
  5
40
102
{ACAD_REACTORS
330
29
102
}
330
29
100
AcDbVisualStyle
  2
OverhangOff
 70
    21
177
     3
291
     1
 70
    58
 90
        2
176
     0
 90
        2
176
     0
 90
        0
176
     0
 90
        0
176
     0
 40
0.6
176
     0
 40
30.0
176
     0
 62
     7
420
 16777215
176
     0
 90
        1
176
     0
 90
        4
176
     0
 62
     7
176
     0
 62
   257
176
     0
 90
        1
176
     0
 90
        1
176
     0
 40
1.0
176
     0
 90
        9
176
     2
 62
     7
176
     0
 40
1.0
176
     0
 90
        1
176
     0
 90
        6
176
     0
 90
        2
176
     0
 62
     7
176
     0
 90
        5
176
     0
 90
        0
176
     0
 90
        0
176
     0
290
     0
176
     0
 90
        1
176
     0
 40
0.0
176
     0
 90
        0
176
     0
290
     0
176
     0
290
     1
176
     0
290
     1
176
     0
290
     0
176
     0
290
     0
176
     0
290
     0
176
     0
290
     0
176
     0
290
     0
176
     0
290
     0
176
     0
 90
       50
176
     0
 40
0.0
176
     0
 40
1.0
176
     0
 90
        0
176
     0
 62
    18
420
        0
176
     0
 90
       50
176
     0
 90
        3
176
     0
 62
     5
420
      255
176
     0
290
     0
176
     0
 90
       50
176
     0
 90
       50
176
     0
 90
       50
176
     0
290
     0
176
     0
 90
       50
176
     0
 62
   256
176
     0
 40
1.0
176
     0
 90
        2
176
     0
  1
strokes_ogs.tif
176
     0
290
     0
176
     0
 40
1.0
176
     0
 40
1.0
176
     0
  0
VISUALSTYLE
  5
33
102
{ACAD_REACTORS
330
29
102
}
330
29
100
AcDbVisualStyle
  2
Realistic
 70
     8
177
     3
291
     0
 70
    58
 90
        2
176
     1
 90
        3
176
     1
 90
        0
176
     1
 90
        2
176
     1
 40
0.6
176
     1
 40
30.0
176
     1
 62
     7
420
 16777215
176
     1
 90
        0
176
     1
 90
        0
176
     1
 62
     7
176
     1
 62
   257
176
     1
 90
        1
176
     1
 90
        1
176
     1
 40
1.0
176
     1
 90
        8
176
     1
 62
   257
176
     1
 40
1.0
176
     1
 90
        1
176
     1
 90
        6
176
     1
 90
        2
176
     1
 62
     7
176
     1
 90
        3
176
     1
 90
        0
176
     1
 90
        0
176
     1
290
     0
176
     1
 90
       13
176
     1
 40
0.0
176
     1
 90
        0
176
     1
290
     0
176
     1
290
     1
176
     1
290
     1
176
     1
290
     0
176
     1
290
     0
176
     1
290
     0
176
     1
290
     0
176
     1
290
     0
176
     1
290
     0
176
     1
 90
       50
176
     1
 40
0.0
176
     1
 40
1.0
176
     1
 90
        0
176
     1
 62
    18
420
        0
176
     1
 90
       50
176
     1
 90
        3
176
     1
 62
     5
420
      255
176
     1
290
     0
176
     1
 90
       50
176
     1
 90
       50
176
     1
 90
       50
176
     1
290
     0
176
     1
 90
       50
176
     1
 62
   256
176
     0
 40
1.0
176
     0
 90
        2
176
     1
  1
strokes_ogs.tif
176
     1
290
     0
176
     1
 40
1.0
176
     1
 40
1.0
176
     1
  0
VISUALSTYLE
  5
3E
102
{ACAD_REACTORS
330
29
102
}
330
29
100
AcDbVisualStyle
  2
Shaded
 70
    27
177
     3
291
     0
 70
    58
 90
        2
176
     1
 90
        2
176
     1
 90
        1
176
     1
 90
        2
176
     1
 40
0.6
176
     1
 40
30.0
176
     1
 62
     7
420
 16777215
176
     1
 90
        0
176
     1
 90
        4
176
     1
 62
     7
176
     1
 62
   257
176
     1
 90
        1
176
     1
 90
        1
176
     1
 40
1.0
176
     1
 90
        8
176
     1
 62
   257
176
     1
 40
1.0
176
     1
 90
        1
176
     1
 90
        6
176
     1
 90
        2
176
     1
 62
     8
420
  7895160
176
     1
 90
        3
176
     1
 90
        0
176
     1
 90
        0
176
     1
290
     0
176
     1
 90
        5
176
     1
 40
0.0
176
     1
 90
        0
176
     1
290
     0
176
     1
290
     1
176
     1
290
     1
176
     1
290
     0
176
     1
290
     0
176
     1
290
     0
176
     1
290
     0
176
     1
290
     0
176
     1
290
     0
176
     1
 90
       50
176
     1
 40
0.0
176
     1
 40
1.0
176
     1
 90
        0
176
     1
 62
    18
420
        0
176
     1
 90
       50
176
     1
 90
        3
176
     1
 62
     5
420
      255
176
     1
290
     0
176
     1
 90
       50
176
     1
 90
       50
176
     1
 90
       50
176
     1
290
     0
176
     1
 90
       50
176
     1
 62
   256
176
     0
 40
1.0
176
     0
 90
        2
176
     1
  1
strokes_ogs.tif
176
     1
290
     0
176
     1
 40
1.0
176
     1
 40
1.0
176
     1
  0
VISUALSTYLE
  5
3D
102
{ACAD_REACTORS
330
29
102
}
330
29
100
AcDbVisualStyle
  2
Shaded with edges
 70
    26
177
     3
291
     0
 70
    58
 90
        2
176
     1
 90
        2
176
     1
 90
        1
176
     1
 90
        2
176
     1
 40
0.6
176
     1
 40
30.0
176
     1
 62
     7
420
 16777215
176
     1
 90
        1
176
     1
 90
        2
176
     1
 62
     7
176
     1
 62
   257
176
     1
 90
        2
176
     1
 90
        1
176
     1
 40
1.0
176
     1
 90
        8
176
     1
 62
   257
176
     1
 40
1.0
176
     1
 90
        1
176
     1
 90
        6
176
     1
 90
        2
176
     1
 62
     7
176
     1
 90
        3
176
     1
 90
        0
176
     1
 90
        0
176
     1
290
     0
176
     1
 90
        5
176
     1
 40
0.0
176
     1
 90
        0
176
     1
290
     0
176
     1
290
     1
176
     1
290
     1
176
     1
290
     0
176
     1
290
     0
176
     1
290
     0
176
     1
290
     0
176
     1
290
     0
176
     1
290
     0
176
     1
 90
       50
176
     1
 40
0.0
176
     1
 40
1.0
176
     1
 90
        0
176
     1
 62
    18
420
        0
176
     1
 90
       50
176
     1
 90
        3
176
     1
 62
     5
420
      255
176
     1
290
     0
176
     1
 90
       50
176
     1
 90
       50
176
     1
 90
       50
176
     1
290
     0
176
     1
 90
       50
176
     1
 62
   256
176
     0
 40
1.0
176
     0
 90
        2
176
     1
  1
strokes_ogs.tif
176
     1
290
     0
176
     1
 40
1.0
176
     1
 40
1.0
176
     1
  0
VISUALSTYLE
  5
3A
102
{ACAD_REACTORS
330
29
102
}
330
29
100
AcDbVisualStyle
  2
Shades of Gray
 70
    23
177
     3
291
     0
 70
    58
 90
        2
176
     1
 90
        2
176
     1
 90
        3
176
     1
 90
        0
176
     1
 40
0.6
176
     1
 40
30.0
176
     1
 62
     7
420
 16777215
176
     1
 90
        2
176
     1
 90
        2
176
     1
 62
     7
176
     1
 62
     7
176
     1
 90
        1
176
     1
 90
        1
176
     1
 40
40.0
176
     1
 90
        8
176
     1
 62
     7
176
     1
 40
1.0
176
     1
 90
        1
176
     1
 90
        6
176
     1
 90
        2
176
     1
 62
     7
176
     1
 90
        3
176
     1
 90
        0
176
     1
 90
        0
176
     1
290
     0
176
     1
 90
        1
176
     1
 40
0.0
176
     1
 90
        0
176
     1
290
     0
176
     1
290
     1
176
     1
290
     1
176
     1
290
     0
176
     1
290
     0
176
     1
290
     0
176
     1
290
     0
176
     1
290
     0
176
     1
290
     0
176
     1
 90
       50
176
     1
 40
0.0
176
     1
 40
1.0
176
     1
 90
        0
176
     1
 62
    18
420
        0
176
     1
 90
       50
176
     1
 90
        3
176
     1
 62
     5
420
      255
176
     1
290
     0
176
     1
 90
       50
176
     1
 90
       50
176
     1
 90
       50
176
     1
290
     0
176
     1
 90
       50
176
     1
 62
   256
176
     0
 40
1.0
176
     0
 90
        2
176
     1
  1
strokes_ogs.tif
176
     1
290
     0
176
     1
 40
1.0
176
     1
 40
1.0
176
     1
  0
VISUALSTYLE
  5
3B
102
{ACAD_REACTORS
330
29
102
}
330
29
100
AcDbVisualStyle
  2
Sketchy
 70
    24
177
     3
291
     0
 70
    58
 90
        1
176
     1
 90
        2
176
     1
 90
        2
176
     1
 90
        0
176
     1
 40
0.6
176
     1
 40
30.0
176
     1
 62
     7
420
 16777215
176
     1
 90
        2
176
     1
 90
        2
176
     1
 62
     7
176
     1
 62
     7
176
     1
 90
        1
176
     1
 90
        1
176
     1
 40
40.0
176
     1
 90
       11
176
     1
 62
     7
176
     1
 40
1.0
176
     1
 90
        1
176
     1
 90
        6
176
     1
 90
        2
176
     1
 62
     7
176
     1
 90
        6
176
     1
 90
        0
176
     1
 90
        0
176
     1
290
     0
176
     1
 90
        1
176
     1
 40
0.0
176
     1
 90
        0
176
     1
290
     0
176
     1
290
     1
176
     1
290
     1
176
     1
290
     0
176
     1
290
     0
176
     1
290
     0
176
     1
290
     0
176
     1
290
     0
176
     1
290
     0
176
     1
 90
       50
176
     1
 40
0.0
176
     1
 40
1.0
176
     1
 90
        0
176
     1
 62
    18
420
        0
176
     1
 90
       50
176
     1
 90
        3
176
     1
 62
     5
420
      255
176
     1
290
     0
176
     1
 90
       50
176
     1
 90
       50
176
     1
 90
       50
176
     1
290
     0
176
     1
 90
       50
176
     1
 62
   256
176
     0
 40
1.0
176
     0
 90
        2
176
     1
  1
strokes_ogs.tif
176
     1
290
     0
176
     1
 40
1.0
176
     1
 40
1.0
176
     1
  0
VISUALSTYLE
  5
36
102
{ACAD_REACTORS
330
29
102
}
330
29
100
AcDbVisualStyle
  2
Thicken
 70
    13
177
     3
291
     1
 70
    58
 90
        2
176
     1
 90
        2
176
     1
 90
        0
176
     1
 90
        0
176
     1
 40
0.6
176
     1
 40
30.0
176
     1
 62
     7
420
 16777215
176
     1
 90
        1
176
     1
 90
        4
176
     1
 62
     7
176
     1
 62
   257
176
     1
 90
        1
176
     1
 90
        1
176
     1
 40
1.0
176
     1
 90
       12
176
     1
 62
     7
176
     1
 40
1.0
176
     1
 90
        1
176
     1
 90
        6
176
     1
 90
        2
176
     1
 62
     7
176
     1
 90
        5
176
     1
 90
        0
176
     1
 90
        0
176
     1
290
     0
176
     1
 90
        1
176
     1
 40
0.0
176
     1
 90
        0
176
     1
290
     0
176
     1
290
     1
176
     1
290
     1
176
     1
290
     0
176
     1
290
     0
176
     1
290
     0
176
     1
290
     0
176
     1
290
     0
176
     1
290
     0
176
     1
 90
       50
176
     1
 40
0.0
176
     1
 40
1.0
176
     1
 90
        0
176
     1
 62
    18
420
        0
176
     1
 90
       50
176
     1
 90
        3
176
     1
 62
     5
420
      255
176
     1
290
     0
176
     1
 90
       50
176
     1
 90
       50
176
     1
 90
       50
176
     1
290
     0
176
     1
 90
       50
176
     1
 62
   256
176
     0
 40
1.0
176
     0
 90
        2
176
     1
  1
strokes_ogs.tif
176
     1
290
     0
176
     1
 40
1.0
176
     1
 40
1.0
176
     1
  0
VISUALSTYLE
  5
30
102
{ACAD_REACTORS
330
29
102
}
330
29
100
AcDbVisualStyle
  2
Wireframe
 70
     5
177
     3
291
     0
 70
    58
 90
        0
176
     1
 90
        2
176
     1
 90
        0
176
     1
 90
        0
176
     1
 40
0.6
176
     1
 40
30.0
176
     1
 62
     7
420
 16777215
176
     1
 90
        1
176
     1
 90
        4
176
     1
 62
     7
176
     1
 62
   257
176
     1
 90
        1
176
     1
 90
        1
176
     1
 40
1.0
176
     1
 90
        0
176
     1
 62
   257
176
     1
 40
1.0
176
     1
 90
        1
176
     1
 90
        6
176
     1
 90
        2
176
     1
 62
     7
176
     1
 90
        3
176
     1
 90
        0
176
     1
 90
        0
176
     1
290
     0
176
     1
 90
        1
176
     1
 40
0.0
176
     1
 90
        0
176
     1
290
     0
176
     1
290
     1
176
     1
290
     1
176
     1
290
     0
176
     1
290
     0
176
     1
290
     0
176
     1
290
     0
176
     1
290
     0
176
     1
290
     0
176
     1
 90
       50
176
     1
 40
0.0
176
     1
 40
1.0
176
     1
 90
        0
176
     1
 62
    18
420
        0
176
     1
 90
       50
176
     1
 90
        3
176
     1
 62
     5
420
      255
176
     1
290
     0
176
     1
 90
       50
176
     1
 90
       50
176
     1
 90
       50
176
     1
290
     0
176
     1
 90
       50
176
     1
 62
   256
176
     0
 40
1.0
176
     0
 90
        2
176
     1
  1
strokes_ogs.tif
176
     1
290
     0
176
     1
 40
1.0
176
     1
 40
1.0
176
     1
  0
VISUALSTYLE
  5
3C
102
{ACAD_REACTORS
330
29
102
}
330
29
100
AcDbVisualStyle
  2
X-Ray
 70
    25
177
     3
291
     0
 70
    58
 90
        2
176
     1
 90
        2
176
     1
 90
        1
176
     1
 90
        1
176
     1
 40
0.5
176
     1
 40
30.0
176
     1
 62
     7
420
 16777215
176
     1
 90
        1
176
     1
 90
        0
176
     1
 62
     7
176
     1
 62
   257
176
     1
 90
        1
176
     1
 90
        1
176
     1
 40
1.0
176
     1
 90
        8
176
     1
 62
     7
176
     1
 40
1.0
176
     1
 90
        1
176
     1
 90
        6
176
     1
 90
        2
176
     1
 62
     7
176
     1
 90
        3
176
     1
 90
        0
176
     1
 90
        0
176
     1
290
     0
176
     1
 90
       13
176
     1
 40
0.0
176
     1
 90
        0
176
     1
290
     0
176
     1
290
     1
176
     1
290
     1
176
     1
290
     0
176
     1
290
     0
176
     1
290
     0
176
     1
290
     0
176
     1
290
     0
176
     1
290
     0
176
     1
 90
       50
176
     1
 40
0.0
176
     1
 40
1.0
176
     1
 90
        0
176
     1
 62
    18
420
        0
176
     1
 90
       50
176
     1
 90
        3
176
     1
 62
     5
420
      255
176
     1
290
     0
176
     1
 90
       50
176
     1
 90
       50
176
     1
 90
       50
176
     1
290
     0
176
     1
 90
       50
176
     1
 62
   256
176
     0
 40
1.0
176
     0
 90
        2
176
     1
  1
strokes_ogs.tif
176
     1
290
     0
176
     1
 40
1.0
176
     1
 40
1.0
176
     1
  0
DICTIONARYVAR
  5
90
102
{ACAD_REACTORS
330
8B
102
}
330
8B
100
DictionaryVariables
280
     0
  1
1:1
  0
DICTIONARYVAR
  5
8D
102
{ACAD_REACTORS
330
8B
102
}
330
8B
100
DictionaryVariables
280
     0
  1
STANDARD
  0
DICTIONARYVAR
  5
8C
102
{ACAD_REACTORS
330
8B
102
}
330
8B
100
DictionaryVariables
280
     0
  1
STANDARD
  0
DICTIONARYVAR
  5
8E
102
{ACAD_REACTORS
330
8B
102
}
330
8B
100
DictionaryVariables
280
     0
  1
Imperial24
  0
DICTIONARYVAR
  5
8F
102
{ACAD_REACTORS
330
8B
102
}
330
8B
100
DictionaryVariables
280
     0
  1
Imperial24
  0
DICTIONARY
  5
1A
330
19
100
AcDbDictionary
280
     1
281
     1
  3
BUMPTILE
360
1C
  3
DIFFUSETILE
360
1B
  3
OPACITYTILE
360
1F
  3
REFLECTIONTILE
360
1E
  3
REFRACTIONTILE
360
20
  3
SPECULARTILE
360
1D
  0
DICTIONARY
  5
12
330
11
100
AcDbDictionary
280
     1
281
     1
  3
BUMPTILE
360
14
  3
DIFFUSETILE
360
13
  3
OPACITYTILE
360
17
  3
REFLECTIONTILE
360
16
  3
REFRACTIONTILE
360
18
  3
SPECULARTILE
360
15
  0
DICTIONARY
  5
22
330
21
100
AcDbDictionary
280
     1
281
     1
  3
BUMPTILE
360
24
  3
DIFFUSETILE
360
23
  3
OPACITYTILE
360
27
  3
REFLECTIONTILE
360
26
  3
REFRACTIONTILE
360
28
  3
SPECULARTILE
360
25
  0
DICTIONARY
  5
91
330
65
100
AcDbDictionary
280
     1
281
     1
  3
ACAD_ROUNDTRIP_2008_TABLESTYLE_CELLSTYLEMAP
360
92
  0
XRECORD
  5
1C
102
{ACAD_REACTORS
330
1A
102
}
330
1A
100
AcDbXrecord
280
     1
270
     1
271
     1
  0
XRECORD
  5
1B
102
{ACAD_REACTORS
330
1A
102
}
330
1A
100
AcDbXrecord
280
     1
270
     1
271
     1
  0
XRECORD
  5
1F
102
{ACAD_REACTORS
330
1A
102
}
330
1A
100
AcDbXrecord
280
     1
270
     1
271
     1
  0
XRECORD
  5
1E
102
{ACAD_REACTORS
330
1A
102
}
330
1A
100
AcDbXrecord
280
     1
270
     1
271
     1
  0
XRECORD
  5
20
102
{ACAD_REACTORS
330
1A
102
}
330
1A
100
AcDbXrecord
280
     1
270
     1
271
     1
  0
XRECORD
  5
1D
102
{ACAD_REACTORS
330
1A
102
}
330
1A
100
AcDbXrecord
280
     1
270
     1
271
     1
  0
XRECORD
  5
14
102
{ACAD_REACTORS
330
12
102
}
330
12
100
AcDbXrecord
280
     1
270
     1
271
     1
  0
XRECORD
  5
13
102
{ACAD_REACTORS
330
12
102
}
330
12
100
AcDbXrecord
280
     1
270
     1
271
     1
  0
XRECORD
  5
17
102
{ACAD_REACTORS
330
12
102
}
330
12
100
AcDbXrecord
280
     1
270
     1
271
     1
  0
XRECORD
  5
16
102
{ACAD_REACTORS
330
12
102
}
330
12
100
AcDbXrecord
280
     1
270
     1
271
     1
  0
XRECORD
  5
18
102
{ACAD_REACTORS
330
12
102
}
330
12
100
AcDbXrecord
280
     1
270
     1
271
     1
  0
XRECORD
  5
15
102
{ACAD_REACTORS
330
12
102
}
330
12
100
AcDbXrecord
280
     1
270
     1
271
     1
  0
XRECORD
  5
24
102
{ACAD_REACTORS
330
22
102
}
330
22
100
AcDbXrecord
280
     1
270
     1
271
     1
  0
XRECORD
  5
23
102
{ACAD_REACTORS
330
22
102
}
330
22
100
AcDbXrecord
280
     1
270
     1
271
     1
  0
XRECORD
  5
27
102
{ACAD_REACTORS
330
22
102
}
330
22
100
AcDbXrecord
280
     1
270
     1
271
     1
  0
XRECORD
  5
26
102
{ACAD_REACTORS
330
22
102
}
330
22
100
AcDbXrecord
280
     1
270
     1
271
     1
  0
XRECORD
  5
28
102
{ACAD_REACTORS
330
22
102
}
330
22
100
AcDbXrecord
280
     1
270
     1
271
     1
  0
XRECORD
  5
25
102
{ACAD_REACTORS
330
22
102
}
330
22
100
AcDbXrecord
280
     1
270
     1
271
     1
  0
CELLSTYLEMAP
  5
92
102
{ACAD_REACTORS
330
91
102
}
330
91
100
AcDbCellStyleMap
 90
        3
300
CELLSTYLE
  1
TABLEFORMAT_BEGIN
 90
        5
170
     1
 91
        0
 92
    32768
 62
   257
 93
        1
300
CONTENTFORMAT
  1
CONTENTFORMAT_BEGIN
 90
        0
 91
        0
 92
      512
 93
        0
300

 40
0.0
140
1.0
 94
        5
 62
     0
340
55
144
0.25
309
CONTENTFORMAT_END
171
     0
 94
        0
309
TABLEFORMAT_END
  1
CELLSTYLE_BEGIN
 90
        1
 91
        1
300
_TITLE
309
CELLSTYLE_END
300
CELLSTYLE
  1
TABLEFORMAT_BEGIN
 90
        5
170
     1
 91
        0
 92
        0
 62
   257
 93
        1
300
CONTENTFORMAT
  1
CONTENTFORMAT_BEGIN
 90
        0
 91
        0
 92
      512
 93
        0
300

 40
0.0
140
1.0
 94
        5
 62
     0
340
55
144
0.18
309
CONTENTFORMAT_END
171
     0
 94
        0
309
TABLEFORMAT_END
  1
CELLSTYLE_BEGIN
 90
        2
 91
        1
300
_HEADER
309
CELLSTYLE_END
300
CELLSTYLE
  1
TABLEFORMAT_BEGIN
 90
        5
170
     1
 91
        0
 92
        0
 62
   257
 93
        1
300
CONTENTFORMAT
  1
CONTENTFORMAT_BEGIN
 90
        0
 91
        0
 92
      512
 93
        0
300

 40
0.0
140
1.0
 94
        2
 62
     0
340
55
144
0.18
309
CONTENTFORMAT_END
171
     0
 94
        0
309
TABLEFORMAT_END
  1
CELLSTYLE_BEGIN
 90
        3
 91
        2
300
_DATA
309
CELLSTYLE_END
  0
ENDSEC
  0
EOF
